<svg xmlns="http://www.w3.org/2000/svg" viewBox="0 0 292.92 221.85"><defs><style>.cls-1{fill:#9da4cb;}.cls-14,.cls-15,.cls-16,.cls-2,.cls-4{fill:none;}.cls-2,.cls-4{stroke:#181c30;}.cls-14,.cls-15,.cls-16,.cls-2{stroke-linecap:round;stroke-linejoin:round;}.cls-2{stroke-width:0.5px;}.cls-3{fill:#181c30;}.cls-4{stroke-miterlimit:10;}.cls-5{font-size:19.65px;font-family:MyriadPro-Regular, Myriad Pro;letter-spacing:-0.01em;}.cls-6{letter-spacing:0em;}.cls-7{letter-spacing:-0.02em;}.cls-8{letter-spacing:-0.01em;}.cls-9{letter-spacing:-0.01em;}.cls-10{letter-spacing:0em;}.cls-11{fill:#c7a58c;}.cls-12{fill:#fff;}.cls-13{fill:#f0c3c0;}.cls-14{stroke:#f0c3c0;stroke-width:0.25px;}.cls-15{stroke:#c7a58c;stroke-width:0.23px;}.cls-16{stroke:#fff;}</style></defs><g id="OBJECTS"><path class="cls-1" d="M198.17,164.76a3.36,3.36,0,0,1-.31.26,3.68,3.68,0,0,1-.39.33,49.81,49.81,0,0,1-8.68,5.54l-.45.23a72.93,72.93,0,0,1-11,4.48l-.47.15a87.37,87.37,0,0,1-11.24,2.68l-.49.08a97,97,0,0,1-10.77,1.15c-.16,0-.32,0-.49,0l-1.69.07a61.48,61.48,0,0,1-8.14-.3l-.5-.06a79.84,79.84,0,0,1-10.81-2l-.49-.12c-3.37-.85-6.6-1.87-9.61-2.94l-.47-.17c-3.06-1.1-5.88-2.25-8.37-3.36l-.46-.2c-3-1.33-5.45-2.57-7.26-3.52l-.45-.24c-1.88-1-2.94-1.64-2.94-1.64l4.66-12.73.17-.49,3.71-10.14,81-4.14L195.34,152l.11.5Z"/><path class="cls-2" d="M109.39,146.86s39.32,33.59,84.8,0"/><path class="cls-3" d="M150.33,168.28a65.18,65.18,0,0,1-17.66-2.44,67.79,67.79,0,0,1-25.43-13.38.25.25,0,1,1,.34-.36,67.38,67.38,0,0,0,25.25,13.26c14.33,4,36.79,5,62.42-13.28a.23.23,0,0,1,.34,0,.24.24,0,0,1-.05.35C178.64,164.54,163.1,168.28,150.33,168.28Z"/><path class="cls-3" d="M111.5,155.43l-.12.26-5.32,11.45-.45-.24L111,155.39l.08-.17Z"/><path class="cls-3" d="M117.85,159.41l-.1.27-4,11.18-.46-.2,4-11.23.06-.18Z"/><path class="cls-3" d="M126.61,163.55l-.09.23-3.9,10.61-.47-.17,3.91-10.62.08-.22Z"/><path class="cls-3" d="M135.37,166.28l-.06.24-2.59,10.93-.49-.12,2.6-10.92.06-.25Z"/><path class="cls-3" d="M144,168.06v11.4l-.5-.06V168.06Z"/><path class="cls-3" d="M154.35,179.66c-.16,0-.32,0-.49,0l-.75-11.47v-.14l.5,0v.15Z"/><path class="cls-3" d="M165.61,178.43l-.49.08L163.2,167l0-.2.49-.08,0,.19Z"/><path class="cls-3" d="M177.32,175.6l-.47.15-4.4-11.21-.07-.18.46-.18.08.2Z"/><path class="cls-3" d="M188.79,170.89l-.45.23-5.28-11-.11-.23.45-.21.1.21Z"/><path class="cls-3" d="M197.86,165a3.68,3.68,0,0,1-.39.33l-5.15-10.67-.12-.25.45-.22.09.19Z"/><rect class="cls-3" x="111.05" y="151.2" width="2.33" height="2.33" transform="translate(231.96 5.84) rotate(75.63)"/><rect class="cls-3" x="116.62" y="154.57" width="2.33" height="2.33" transform="translate(239.43 2.99) rotate(75.63)"/><rect class="cls-3" x="123.31" y="157.88" width="2.33" height="2.33" transform="translate(214.78 -21.6) rotate(64.61)"/><rect class="cls-3" x="130.73" y="160.51" width="2.33" height="2.33" transform="translate(221.4 -26.81) rotate(64.61)"/><rect class="cls-3" x="138.95" y="163.1" width="2.33" height="2.33" transform="translate(200.61 -43) rotate(56.73)"/><rect class="cls-3" x="147.14" y="163.83" width="2.33" height="2.33" transform="translate(143.83 -56.81) rotate(40.8)"/><rect class="cls-3" x="155.35" y="163.94" width="2.33" height="2.33" transform="translate(145.91 -62.15) rotate(40.8)"/><rect class="cls-3" x="163.4" y="162.58" width="2.33" height="2.33" transform="translate(146.98 -67.74) rotate(40.8)"/><rect class="cls-3" x="170.82" y="160.62" width="2.33" height="2.33" transform="translate(147.5 -73.06) rotate(40.8)"/><rect class="cls-3" x="178.46" y="157.61" width="2.33" height="2.33" transform="translate(103.46 -68.54) rotate(30)"/><rect class="cls-3" x="184.75" y="154.16" width="2.33" height="2.33" transform="translate(102.57 -72.15) rotate(30)"/><rect class="cls-3" x="190.99" y="150.23" width="2.33" height="2.33" transform="translate(101.44 -75.8) rotate(30)"/><circle class="cls-4" cx="151.67" cy="96.26" r="61"/><text class="cls-5" transform="translate(132.15 90.9)">L<tspan class="cls-6" x="9" y="0">eer </tspan><tspan class="cls-7"><tspan x="-23.19" y="23.58">P</tspan><tspan class="cls-8" x="-13.06" y="23.58">r</tspan><tspan class="cls-6" x="-6.83" y="23.58">edi</tspan><tspan class="cls-9" x="18.69" y="23.58">c</tspan><tspan class="cls-10" x="27.38" y="23.58">cion</tspan></tspan></text><path class="cls-11" d="M164.08,145.21a.49.49,0,1,0,.49-.49A.49.49,0,0,0,164.08,145.21Z"/><path class="cls-12" d="M196.24,133.55l2.75-4,2.68-4.05a.16.16,0,0,1,.23,0,.18.18,0,0,1,.07.19,13.79,13.79,0,0,1-2.23,4.43,25.08,25.08,0,0,1-3.22,3.76.2.2,0,0,1-.27,0A.2.2,0,0,1,196.24,133.55Z"/><path class="cls-12" d="M203,124a.53.53,0,1,1-.52-.52A.52.52,0,0,1,203,124Z"/><path class="cls-12" d="M93.52,95.54a57,57,0,0,1,1.11-11.05,65.65,65.65,0,0,1,3-10.71,50.76,50.76,0,0,1,5.07-10,38.17,38.17,0,0,1,7.46-8.27.24.24,0,0,1,.35,0,.27.27,0,0,1,0,.31l0,0c-1.09,1.48-2.38,2.76-3.34,4.32-.51.75-1.06,1.46-1.53,2.23l-1.4,2.31a70.29,70.29,0,0,0-4.66,9.75,95.67,95.67,0,0,0-3.28,10.35,102.25,102.25,0,0,0-2.13,10.7v0a.33.33,0,0,1-.38.29A.34.34,0,0,1,93.52,95.54Z"/><path class="cls-12" d="M94,100.06l.72,4.83.79,4.79a.19.19,0,0,1-.14.2.18.18,0,0,1-.18-.09A14.12,14.12,0,0,1,93.85,105a25.58,25.58,0,0,1-.18-5,.19.19,0,0,1,.2-.17A.19.19,0,0,1,94,100.06Z"/><path class="cls-12" d="M96.81,113.28a.47.47,0,1,1-.46-.47A.47.47,0,0,1,96.81,113.28Z"/><path class="cls-11" d="M151.47,50.1l1.29.65-1.06.63A2.89,2.89,0,0,0,150.42,53l-.61,1.85-1-2.13a2.11,2.11,0,0,0-1-1L146.47,51l1.31-.77a2.24,2.24,0,0,0,1-1.16l.88-2.43.79,2.29A2.13,2.13,0,0,0,151.47,50.1Z"/><path class="cls-11" d="M182.43,60.45l1.73.88-1.42.84A3.79,3.79,0,0,0,181,64.3l-.82,2.49-1.3-2.86a2.89,2.89,0,0,0-1.33-1.39l-1.87-.95,1.76-1A3,3,0,0,0,178.75,59l1.18-3.27L181,58.8A2.88,2.88,0,0,0,182.43,60.45Z"/><path class="cls-11" d="M199,84.57l.8.41-.66.39a1.77,1.77,0,0,0-.79,1L198,87.51l-.6-1.32a1.4,1.4,0,0,0-.62-.65l-.87-.44.82-.48a1.33,1.33,0,0,0,.6-.72l.54-1.51.5,1.42A1.31,1.31,0,0,0,199,84.57Z"/><path class="cls-11" d="M128.2,57.91l.8.41-.66.39a1.79,1.79,0,0,0-.8,1l-.38,1.15-.6-1.32a1.33,1.33,0,0,0-.61-.65l-.87-.44.82-.48a1.35,1.35,0,0,0,.59-.72l.55-1.51.49,1.42A1.39,1.39,0,0,0,128.2,57.91Z"/><path class="cls-11" d="M130.16,130.31l.8.41-.66.39a1.79,1.79,0,0,0-.8,1l-.38,1.15-.6-1.32a1.33,1.33,0,0,0-.61-.65l-.87-.44.82-.48a1.4,1.4,0,0,0,.59-.72l.55-1.51.49,1.42A1.32,1.32,0,0,0,130.16,130.31Z"/><path class="cls-11" d="M152.09,142.62l1.16.59-.95.57a2.61,2.61,0,0,0-1.16,1.43l-.55,1.67-.87-1.92a1.91,1.91,0,0,0-.89-.93l-1.25-.64,1.18-.69a2,2,0,0,0,.86-1l.8-2.19.71,2.06A1.9,1.9,0,0,0,152.09,142.62Z"/><path class="cls-11" d="M176.52,133l.56.29-.46.28a1.2,1.2,0,0,0-.56.69l-.27.82-.43-.94a1,1,0,0,0-.43-.45l-.61-.31.57-.34a1,1,0,0,0,.43-.51l.38-1.07.35,1A.94.94,0,0,0,176.52,133Z"/><path class="cls-11" d="M200.06,109.44l.57.28-.46.28a1.27,1.27,0,0,0-.57.7l-.27.81-.42-.93a1,1,0,0,0-.43-.46l-.62-.31.58-.34a.89.89,0,0,0,.42-.51l.39-1.07.35,1A.94.94,0,0,0,200.06,109.44Z"/><path class="cls-11" d="M110.21,109.44l.57.28-.47.28a1.3,1.3,0,0,0-.56.7l-.27.81-.42-.93a.94.94,0,0,0-.44-.46l-.61-.31.58-.34A1,1,0,0,0,109,109l.38-1.07.35,1A1,1,0,0,0,110.21,109.44Z"/><path class="cls-11" d="M118.49,68.47l.57.28-.47.28a1.22,1.22,0,0,0-.56.7l-.27.81-.43-.93a.92.92,0,0,0-.43-.46l-.61-.31.57-.34a.94.94,0,0,0,.43-.51l.38-1.07.35,1A1,1,0,0,0,118.49,68.47Z"/><path class="cls-11" d="M160.29,59.87a1,1,0,1,0,1-1A1,1,0,0,0,160.29,59.87Z"/><path class="cls-11" d="M129,46.59a1,1,0,1,0,1-1A1,1,0,0,0,129,46.59Z"/><path class="cls-11" d="M192.2,61.26a1,1,0,0,0,2,0,1,1,0,1,0-2,0Z"/><path class="cls-11" d="M203.3,98.23a1,1,0,1,0,1-1A1,1,0,0,0,203.3,98.23Z"/><path class="cls-11" d="M182.51,121.45a1,1,0,1,0,1-1A1,1,0,0,0,182.51,121.45Z"/><path class="cls-11" d="M115.3,121.45a1,1,0,1,0,1-1A1,1,0,0,0,115.3,121.45Z"/><path class="cls-11" d="M189.14,132.49a.49.49,0,1,0,.49-.49A.49.49,0,0,0,189.14,132.49Z"/><circle class="cls-11" cx="100.63" cy="95.56" r="0.49"/><path class="cls-11" d="M205.27,80.55a.49.49,0,1,0,.49-.49A.49.49,0,0,0,205.27,80.55Z"/><path class="cls-11" d="M189.14,72.91a.49.49,0,1,0,.49-.49A.49.49,0,0,0,189.14,72.91Z"/><path class="cls-11" d="M142.15,64.26a.49.49,0,1,0,.49-.49A.49.49,0,0,0,142.15,64.26Z"/><circle class="cls-11" cx="163.91" cy="41.72" r="0.49"/><path class="cls-11" d="M107.52,78.1a.49.49,0,1,0,.49-.49A.49.49,0,0,0,107.52,78.1Z"/><circle class="cls-11" cx="117.27" cy="135.06" r="0.49"/><path class="cls-11" d="M148.57,133a.5.5,0,1,0,.49-.49A.49.49,0,0,0,148.57,133Z"/><circle class="cls-11" cx="133.54" cy="148.5" r="0.49"/><path class="cls-12" d="M85.92,42.87c-4.09-.69-7.66,16.52-9.2,23.92S70.34,87,64.21,86.35c-3.06-.31-5.7-6.17-7.56-11.94C62,70.29,68.77,63.8,65.24,61.74a3.31,3.31,0,0,0-.68-.31c-1.88-.62-4.83-.23-8.1.66-.9.24-1.83.53-2.76.83l1.49-12.3L56.33,48c5.77-3.35,13.24-9.34,11.72-12.74a2.28,2.28,0,0,0-1.86-1.15,12,12,0,0,0-3.58,0c0-.11.11-.21.15-.31,2.05-4,3-14.79.18-15.3S47.66,37.07,47.66,37.07l-.74,1.7c-5.53,2.31-19.69,8.63-22.28,13.89-3.27,6.65-.25,22.56-.25,22.56l-.77,7.16c-.76,7.15,1.79,13.77,7.15,27.32s2,42.33,2,42.33,6.38,5.25,17.78,5.75A28,28,0,0,0,69.15,152l0-14.27s2-1.27,8.64-9.63,5.87-24.57,6.45-30.88,3.5-11.56,5.29-21.56S90,43.56,85.92,42.87ZM38.6,56.66l2.63-1.27L40,66.92l-.44,2-1.71.87Z"/><path class="cls-13" d="M65.24,61.74a4.59,4.59,0,0,1-1.54.56c-1.08.24-8.5,2.25-7.24-.21,3.27-.89,6.22-1.28,8.1-.66A3.31,3.31,0,0,1,65.24,61.74Z"/><path class="cls-13" d="M36.08,104.85a48.66,48.66,0,0,1,6-5.44,18.94,18.94,0,0,1,7.22-3.63A158.41,158.41,0,0,1,65.14,92c1.34-.22,2.68-.41,4-.51a17.3,17.3,0,0,1,2,0,3.77,3.77,0,0,1,2,.53,2,2,0,0,1,.67.83,2.2,2.2,0,0,1,.1,1,4.9,4.9,0,0,1-.74,1.92,13.79,13.79,0,0,1-2.68,3.07,19.42,19.42,0,0,1-3.33,2.35,36.33,36.33,0,0,1-3.71,1.68c-2.48,1.07-4.93,2.21-7.32,3.48h0l0,0L44.88,117.71a.1.1,0,0,1-.14-.14L56,106.19l0,0h0c2.4-1.27,4.86-2.41,7.35-3.48A33.18,33.18,0,0,0,67.11,101a19.25,19.25,0,0,0,3.3-2.32,13.53,13.53,0,0,0,2.64-3,4.85,4.85,0,0,0,.72-1.84,1.7,1.7,0,0,0-.68-1.68,3.65,3.65,0,0,0-1.88-.51,17,17,0,0,0-2,0c-1.35.1-2.69.28-4,.5a161.53,161.53,0,0,0-15.79,3.72,18.78,18.78,0,0,0-7.18,3.6,48.33,48.33,0,0,0-6,5.41.05.05,0,0,1-.08,0A.05.05,0,0,1,36.08,104.85Z"/><path class="cls-14" d="M41.58,99.9s-1.6-7.73-2-7.91"/><path class="cls-13" d="M38.89,89.42A23.64,23.64,0,0,1,41,84.86a8,8,0,0,1,3.67-3.35c2.92-1.64,5.82-3.31,8.63-5.11a67,67,0,0,0,8.09-5.91,23.76,23.76,0,0,0,3.41-3.61A8.55,8.55,0,0,0,66,64.74a4.17,4.17,0,0,0,.23-2.36h0l0,.05a4,4,0,0,0-2.46-1.35,9.47,9.47,0,0,0-3-.06,23.84,23.84,0,0,0-5.77,1.62c-3.77,1.45-7.51,3-11.22,4.53s-7.42,3.18-11,5c-1.75,1-3.69,1.81-4.74,3.59-1.2,1.62-2.33,3.29-3.43,5a0,0,0,0,1-.06,0,0,0,0,0,1,0-.06c1.09-1.7,2.22-3.37,3.41-5A13.4,13.4,0,0,1,29,74.5a8.26,8.26,0,0,1,1.19-1c.86-.54,1.74-1,2.63-1.51,3.59-1.86,7.29-3.48,11-5.09s7.45-3.11,11.2-4.59a24.56,24.56,0,0,1,5.84-1.67,9.82,9.82,0,0,1,3.06.05,4.26,4.26,0,0,1,2.71,1.5l0,0h0a4.55,4.55,0,0,1-.26,2.56,9.17,9.17,0,0,1-1.26,2.22,23.52,23.52,0,0,1-3.48,3.64,68,68,0,0,1-8.16,5.88c-2.83,1.78-5.74,3.43-8.67,5A10.83,10.83,0,0,0,42.67,83a10.4,10.4,0,0,0-1.55,1.94A24,24,0,0,0,39,89.45a.06.06,0,0,1-.06,0A.07.07,0,0,1,38.89,89.42Z"/><path class="cls-13" d="M43.53,40c3.21-1.41,6.52-2.6,9.86-3.71,1.67-.52,3.36-1,5.07-1.42a35.14,35.14,0,0,1,5.2-.91.05.05,0,0,1,.05.05s0,0,0,0c-1.74.26-3.44.66-5.14,1.09s-3.36,1-5,1.51-3.32,1.09-5,1.68-3.29,1.21-4.93,1.84a.09.09,0,0,1-.12-.06A.09.09,0,0,1,43.53,40Z"/><path class="cls-13" d="M40.5,55.79C43.2,54.35,46,53,48.68,51.65l4.13-2c1.36-.68,2.76-1.32,4.11-2h0a.07.07,0,0,1,.09,0,.07.07,0,0,1,0,.09c-1.33.78-2.69,1.48-4,2.18L48.87,52c-2.76,1.32-5.49,2.69-8.29,3.94a.1.1,0,0,1-.13,0A.1.1,0,0,1,40.5,55.79Z"/><path class="cls-14" d="M58.85,104.89S68.3,115,64,128.49a63.45,63.45,0,0,1-3.91,9.79"/><path class="cls-13" d="M78,93.72c.75.35,1.47.75,2.19,1.17a17.65,17.65,0,0,1,2.07,1.37A18.45,18.45,0,0,1,80,95.14a23.9,23.9,0,0,1-2.1-1.32.05.05,0,0,1,0-.08A.08.08,0,0,1,78,93.72Z"/><path class="cls-13" d="M70.51,98.67a31.09,31.09,0,0,1,5.22,1.92,18.93,18.93,0,0,1,4.66,3,0,0,0,0,1,0,.06s0,0-.06,0a18.66,18.66,0,0,0-4.67-2.91,31.28,31.28,0,0,0-5.21-1.83.13.13,0,0,1-.09-.15.13.13,0,0,1,.15-.1Z"/><path class="cls-13" d="M66.84,93.48,70.62,93a5.22,5.22,0,0,0,1.79-.43.67.67,0,0,0,.4-.42.53.53,0,0,0-.34-.54,1.52,1.52,0,0,0-.67-.07,35.65,35.65,0,0,0-6,.28c-.53.12-1.45.45-1.18,1.16S66.29,93.54,66.84,93.48Z"/><path class="cls-13" d="M66.19,34.11a.88.88,0,0,1-.12.21,3,3,0,0,1-2,.85l-5.13.76c-.45.06-2.25.43-2-.38a.69.69,0,0,1,.28-.29C60.53,34.38,64.05,33.71,66.19,34.11Z"/><path class="cls-11" d="M44,144.71a5.19,5.19,0,1,1-3.14-9.9,5.07,5.07,0,0,1,2.34-.18A5.2,5.2,0,0,0,46,143.51,5.13,5.13,0,0,1,44,144.71Z"/><polygon class="cls-15" points="38 125.54 43.24 125.54 40.62 130.22 38 125.54"/><polygon class="cls-15" points="53.45 154.7 48.2 154.7 50.82 150.02 53.45 154.7"/><line class="cls-15" x1="49.03" y1="153.23" x2="52.62" y2="153.23"/><path class="cls-1" d="M69.12,141.66v.25c1.44,0,2.54,0,3.38.07,2.48.17,2.7.57,2.71.67.13,1.08-9.56,3.48-23.68,5.2s-24.09,1.71-24.23.64c-.06-.51,2.1-1.33,5.92-2.22l0-.28c-3.81.89-6.28,1.79-6.19,2.53.06.48,1.18.76,3,.89,4.47.31,13.19-.3,21.48-1.31,11.74-1.43,24.1-3.84,23.9-5.48C75.39,141.94,73.25,141.62,69.12,141.66Z"/><path class="cls-12" d="M215.84,75c1.79,10,4.71,15.25,5.29,21.56s-.18,22.52,6.45,30.88,8.64,9.63,8.64,9.63l0,14.27a28,28,0,0,0,18.56,5.75c11.4-.5,17.78-5.75,17.78-5.75s-3.32-28.78,2-42.33,7.91-20.17,7.15-27.32l-.77-7.16s3-15.91-.25-22.56c-2.59-5.26-16.75-11.58-22.28-13.88l-.74-1.71s-12.47-19-15.28-18.53-1.87,11.3.18,15.31l.15.3a12.34,12.34,0,0,0-3.58,0,2.28,2.28,0,0,0-1.86,1.15C235.76,38,243.23,44,249,47.34c.69,1.58,1.14,2.63,1.14,2.63l1.49,12.3c-.93-.31-1.86-.59-2.76-.84-3.27-.89-6.22-1.28-8.1-.66a3.31,3.31,0,0,0-.68.31c-3.53,2.07,3.22,8.56,8.59,12.68-1.86,5.77-4.5,11.62-7.56,11.93-6.13.62-11-12.15-12.51-19.55s-5.11-24.62-9.2-23.93S214.05,65,215.84,75Zm51.68-5.93s-.63-.33-1.71-.86l-.44-2L264.1,54.74,266.73,56Z"/><path class="cls-13" d="M240.09,61.08a4.59,4.59,0,0,0,1.54.56c1.08.24,8.5,2.25,7.24-.21-3.27-.89-6.22-1.28-8.1-.66A3.31,3.31,0,0,0,240.09,61.08Z"/><path class="cls-13" d="M269.16,104.27a50,50,0,0,0-6-5.41A18.76,18.76,0,0,0,256,95.27a156,156,0,0,0-15.79-3.72c-1.33-.22-2.67-.41-4-.5a16.89,16.89,0,0,0-2,0,3.66,3.66,0,0,0-1.89.5,1.71,1.71,0,0,0-.68,1.69,4.8,4.8,0,0,0,.72,1.83,13.6,13.6,0,0,0,2.65,3,19.91,19.91,0,0,0,3.29,2.32,38.39,38.39,0,0,0,3.69,1.66c2.49,1.06,5,2.2,7.35,3.47h0l0,0,11.3,11.37a.1.1,0,0,1-.14.14l-11.34-11.34,0,0h0c-2.39-1.26-4.84-2.41-7.32-3.48a34.29,34.29,0,0,1-3.71-1.68,18.88,18.88,0,0,1-3.33-2.35,13.79,13.79,0,0,1-2.68-3.07,4.9,4.9,0,0,1-.74-1.92,2.21,2.21,0,0,1,.1-1,1.86,1.86,0,0,1,.67-.82,3.78,3.78,0,0,1,2-.54,17.3,17.3,0,0,1,2,0c1.36.1,2.7.29,4,.51A158.41,158.41,0,0,1,256,95.12a18.94,18.94,0,0,1,7.22,3.63,49.47,49.47,0,0,1,6,5.44.06.06,0,0,1,0,.09A.05.05,0,0,1,269.16,104.27Z"/><path class="cls-14" d="M263.75,99.24s1.6-7.72,2-7.9"/><path class="cls-13" d="M266.35,88.79a23.89,23.89,0,0,0-2.14-4.51,9.79,9.79,0,0,0-1.55-1.94A10.38,10.38,0,0,0,260.57,81c-2.93-1.62-5.84-3.27-8.67-5.06a69.08,69.08,0,0,1-8.16-5.87,24.05,24.05,0,0,1-3.48-3.65A9.1,9.1,0,0,1,239,64.2a4.56,4.56,0,0,1-.26-2.56h0a.08.08,0,0,1,0,0,4.27,4.27,0,0,1,2.71-1.51,10.13,10.13,0,0,1,3.06,0,24.56,24.56,0,0,1,5.84,1.67q5.64,2.22,11.2,4.6c3.7,1.6,7.4,3.22,11,5.09.89.47,1.77,1,2.63,1.51a7.63,7.63,0,0,1,1.19.95,12,12,0,0,1,.94,1.19c1.19,1.63,2.32,3.31,3.41,5,0,0,0,0,0,.06a0,0,0,0,1-.07,0c-1.1-1.69-2.23-3.36-3.43-5-1.05-1.78-3-2.62-4.73-3.59-3.59-1.84-7.3-3.44-11-5S254,63.43,250.26,62a23.84,23.84,0,0,0-5.77-1.62,9.47,9.47,0,0,0-3,.06,4,4,0,0,0-2.46,1.36l0-.05h0a4.16,4.16,0,0,0,.23,2.36,8.21,8.21,0,0,0,1.2,2.14,23.37,23.37,0,0,0,3.41,3.62,68,68,0,0,0,8.09,5.9c2.81,1.8,5.71,3.47,8.63,5.11a10.43,10.43,0,0,1,2.1,1.38,10,10,0,0,1,1.57,2,23.83,23.83,0,0,1,2.12,4.55s0,0,0,.06A0,0,0,0,1,266.35,88.79Z"/><path class="cls-13" d="M261.73,39.5c-1.63-.63-3.28-1.23-4.93-1.83s-3.3-1.17-5-1.69-3.34-1.07-5-1.5a49.94,49.94,0,0,0-5.14-1.09.07.07,0,0,1,0-.06,0,0,0,0,1,.06,0,34,34,0,0,1,5.19.91c1.71.4,3.4.89,5.07,1.42,3.34,1.1,6.65,2.29,9.86,3.7a.1.1,0,0,1,.05.13A.09.09,0,0,1,261.73,39.5Z"/><path class="cls-13" d="M264.75,55.31c-2.8-1.25-5.53-2.62-8.29-3.94l-4.08-2.08c-1.36-.7-2.72-1.39-4-2.18a.07.07,0,1,1,.06-.12h0c1.35.69,2.75,1.33,4.11,2l4.13,2c2.73,1.39,5.48,2.7,8.18,4.14a.1.1,0,0,1,0,.14A.1.1,0,0,1,264.75,55.31Z"/><path class="cls-14" d="M246.48,104.23s-9.45,10.08-5.19,23.61a63.45,63.45,0,0,0,3.91,9.79"/><path class="cls-13" d="M227.44,93.17c-.67.48-1.38.9-2.1,1.32a18.45,18.45,0,0,1-2.22,1.12,19.09,19.09,0,0,1,2.07-1.38c.72-.41,1.44-.82,2.2-1.17a.05.05,0,0,1,.07,0A.06.06,0,0,1,227.44,93.17Z"/><path class="cls-13" d="M234.88,98.25a33.19,33.19,0,0,0-5.21,1.83A19,19,0,0,0,225,103a.06.06,0,0,1-.06,0,0,0,0,0,1,0-.07,19.23,19.23,0,0,1,4.66-3A32,32,0,0,1,234.82,98a.12.12,0,1,1,.06.24Z"/><path class="cls-13" d="M238.49,92.82l-3.78-.46a5.22,5.22,0,0,1-1.79-.43.67.67,0,0,1-.4-.41.52.52,0,0,1,.34-.54,1.53,1.53,0,0,1,.67-.08,35.65,35.65,0,0,1,6,.29c.54.12,1.45.44,1.18,1.15S239,92.89,238.49,92.82Z"/><path class="cls-13" d="M239.14,33.45a.88.88,0,0,0,.12.21,3,3,0,0,0,2,.85l5.13.76c.45.06,2.25.43,2-.38a.69.69,0,0,0-.28-.29C244.8,33.72,241.28,33.05,239.14,33.45Z"/><path class="cls-11" d="M261.38,144.05a5.19,5.19,0,1,0,3.14-9.89,5.07,5.07,0,0,0-2.34-.19,5.19,5.19,0,0,1-2.82,8.88A5.13,5.13,0,0,0,261.38,144.05Z"/><polygon class="cls-15" points="267.33 124.89 262.09 124.89 264.71 129.56 267.33 124.89"/><polygon class="cls-15" points="251.89 154.05 257.13 154.05 254.51 149.37 251.89 154.05"/><line class="cls-15" x1="256.3" y1="152.57" x2="252.71" y2="152.57"/><path class="cls-1" d="M229.86,142c-.2,1.64,12.16,4,23.9,5.48,8.29,1,17,1.62,21.48,1.31,1.85-.13,3-.41,3-.89.09-.74-2.38-1.64-6.19-2.53l0,.28c3.82.89,6,1.71,5.92,2.22-.14,1.07-10.12,1.08-24.23-.64S230,143.07,230.11,142c0-.1.23-.5,2.71-.67.84-.06,1.94-.09,3.38-.07V141C232.08,141,229.94,141.28,229.86,142Z"/><line class="cls-16" x1="60.42" y1="74.69" x2="87.31" y2="82.38"/><line class="cls-16" x1="71.96" y1="46.09" x2="95.48" y2="61.23"/><line class="cls-16" x1="92.15" y1="23.76" x2="108.99" y2="46.09"/><line class="cls-16" x1="122.34" y1="7.9" x2="129.54" y2="34.93"/><line class="cls-16" x1="197.82" y1="14.17" x2="182.96" y2="37.87"/><line class="cls-16" x1="223.07" y1="33.68" x2="201.99" y2="52.06"/><line class="cls-16" x1="238.91" y1="59.28" x2="212.78" y2="69.25"/><line class="cls-16" x1="244.36" y1="86.35" x2="216.67" y2="90.28"/><line class="cls-16" x1="158.59" y1="2.89" x2="157.41" y2="30.84"/><path class="cls-11" d="M164.12,75.08l1.29.65-1.06.63A2.88,2.88,0,0,0,163.07,78l-.61,1.85-1-2.13a2.18,2.18,0,0,0-1-1l-1.4-.71,1.31-.77a2.15,2.15,0,0,0,1-1.16l.88-2.43.79,2.29A2.18,2.18,0,0,0,164.12,75.08Z"/><path class="cls-11" d="M139.63,74.43a.49.49,0,1,0,.49-.49A.49.49,0,0,0,139.63,74.43Z"/><path class="cls-11" d="M170.77,90l-.4-.61-.22.49a1,1,0,0,1-.65.58l-.83.27,1.06.47a1.25,1.25,0,0,1,.55.47l.42.66.28-.61a.85.85,0,0,1,.47-.44l1.08-.39-1.12-.39A1.27,1.27,0,0,1,170.77,90Z"/><circle class="cls-12" cx="147.97" cy="203.29" r="14.25" transform="translate(-94.8 137.81) rotate(-38.85)"/><path class="cls-12" d="M123.85,211.77a14.24,14.24,0,1,1,3-23.53,14.27,14.27,0,0,0-3,23.53Z"/><path class="cls-12" d="M91,204.45A14.72,14.72,0,0,1,89.4,204a14.25,14.25,0,1,1,9.12-27,13.88,13.88,0,0,1,4.88,2.84A14.24,14.24,0,0,0,91,204.45Z"/><path class="cls-12" d="M170.63,211.05a14.25,14.25,0,1,0-1.87-23.63,14.27,14.27,0,0,1,1.87,23.63Z"/><path class="cls-12" d="M201,207a14.67,14.67,0,0,0,1.62-.38,14.24,14.24,0,1,0-7.87-27.38,14,14,0,0,0-5,2.61A14.24,14.24,0,0,1,201,207Z"/><path class="cls-11" d="M158.59,96.26a1,1,0,1,0,2,0,1,1,0,0,0-2,0Z"/><path class="cls-11" d="M124.47,84a1,1,0,1,0,1-1A1,1,0,0,0,124.47,84Z"/><path class="cls-11" d="M126.76,95.78l.56.29-.46.28a1.2,1.2,0,0,0-.56.69l-.27.82-.43-.94a.94.94,0,0,0-.43-.45l-.61-.31.57-.34a1,1,0,0,0,.43-.51l.38-1.07.35,1A.94.94,0,0,0,126.76,95.78Z"/><path class="cls-11" d="M176.59,97.86a.5.5,0,1,0,.49-.49A.49.49,0,0,0,176.59,97.86Z"/><path class="cls-11" d="M182.69,81l.8.4-.66.39a1.76,1.76,0,0,0-.79,1L181.66,84l-.6-1.33a1.37,1.37,0,0,0-.62-.64l-.87-.44.82-.48a1.41,1.41,0,0,0,.6-.72l.54-1.52.5,1.43A1.34,1.34,0,0,0,182.69,81Z"/><path class="cls-11" d="M158.57,123.58l.8.4-.66.39a1.84,1.84,0,0,0-.79,1l-.38,1.16-.6-1.33a1.33,1.33,0,0,0-.62-.64l-.87-.44.82-.48a1.41,1.41,0,0,0,.6-.72l.54-1.52.5,1.43A1.34,1.34,0,0,0,158.57,123.58Z"/><path class="cls-11" d="M168.18,124.88a.5.5,0,1,0,.49-.49A.49.49,0,0,0,168.18,124.88Z"/><path class="cls-11" d="M138.9,120.93a.5.5,0,1,0,.49-.49A.49.49,0,0,0,138.9,120.93Z"/><path class="cls-11" d="M141.16,94.24a.5.5,0,0,0,.5.49.49.49,0,1,0,0-1A.5.5,0,0,0,141.16,94.24Z"/><path class="cls-11" d="M151.71,67.66l.57.29-.47.27a1.34,1.34,0,0,0-.56.7l-.27.82-.42-.94a.9.9,0,0,0-.43-.45l-.62-.32.58-.33a1,1,0,0,0,.42-.51l.39-1.07.35,1A.91.91,0,0,0,151.71,67.66Z"/></g></svg>