<svg xmlns="http://www.w3.org/2000/svg" viewBox="0 0 263.38 178.26"><defs><style>.cls-1{font-size:23.39px;fill:#fff;font-family:BillyMoney-Regular, Billy Money;}.cls-2{letter-spacing:0.03em;}.cls-3{letter-spacing:-0.01em;}.cls-4{letter-spacing:0em;}.cls-5,.cls-6,.cls-8,.cls-9{fill:none;}.cls-5{stroke:#d4cec7;}.cls-5,.cls-8,.cls-9{stroke-linecap:round;stroke-linejoin:round;}.cls-5,.cls-8{stroke-width:0.75px;}.cls-10,.cls-6{stroke:#fff;stroke-miterlimit:10;stroke-width:2px;}.cls-7{fill:#c5caa0;}.cls-8,.cls-9{stroke:#c5caa0;}.cls-10{fill:#cf874b;}</style></defs><g id="Objects"><text class="cls-1" transform="translate(117.97 94.71)">Pr<tspan class="cls-2" x="16.35" y="0">e</tspan><tspan x="24" y="0">dicc</tspan><tspan class="cls-3" x="52.31" y="0">io</tspan><tspan class="cls-4" x="64.1" y="0">n</tspan></text><line class="cls-5" x1="96.12" y1="52.13" x2="76.9" y2="39.47"/><line class="cls-5" x1="105.13" y1="42.05" x2="99.06" y2="36.28"/><line class="cls-5" x1="116.67" y1="34.46" x2="108.63" y2="23.68"/><line class="cls-5" x1="88.25" y1="74.8" x2="81.78" y2="73.64"/><line class="cls-5" x1="85.9" y1="88.34" x2="68.4" y2="86.92"/><line class="cls-5" x1="155.08" y1="22.17" x2="154.25" y2="14.04"/><line class="cls-5" x1="193.49" y1="33.55" x2="209.74" y2="10.63"/><line class="cls-5" x1="203.82" y1="42.05" x2="212.7" y2="33.17"/><line class="cls-5" x1="222.79" y1="77.43" x2="231.75" y2="75.76"/><line class="cls-5" x1="218.62" y1="117.89" x2="229.17" y2="122.67"/><line class="cls-5" x1="212.32" y1="130.11" x2="234.94" y2="144.84"/><path class="cls-6" d="M205.85,141c-3.34-1.11-7.11-.35-10.69-.44a61.14,61.14,0,0,0,6.05-5.28c24.39-24.4,23.79-64.56-1.36-89.7s-65.31-25.76-89.7-1.36C94.27,60.11,89,82.66,94.16,103.4a58.56,58.56,0,0,0-6.52-3.87,21.19,21.19,0,0,0-5.45-2.07,21.14,21.14,0,0,0-5.73-.19c-17.06,1.25-32.63,9.7-47.6,18,0,0-4.53,23.63,16.45,33.44l11.27-7.84a54.17,54.17,0,0,1,10.72-6.27c3.87-1.52,8.25-2.1,12.18-.78,3.31,1.11,6,3.46,8.68,5.72,5.42,4.63,11,9.22,17.67,11.86,2.77,1.1,5.67,1.83,8.5,2.77,11.11,3.65,21.17,10.29,32.57,12.85a16.61,16.61,0,0,0,8.51.15,59.09,59.09,0,0,0,7-3.19c15.88-7.39,31.83-14.81,48.62-19.81C210,142.74,207.45,141.55,205.85,141Z"/><path class="cls-7" d="M207.25,99.14c-1.12-1.78-1.48-2.74-2.6-4.53,1.27-2.09,4.23-6,5.5-8.13-2,1.49-5.54,4.41-7.63,5.69-1.75-1-2.65-1.17-4.44-2.08-.14-.07-.69-.55-.62-.42a49.52,49.52,0,0,0,2.92,4.64c-1.33,2.1-4.29,5.6-5.45,7.79,2.07-1.34,5.75-4.09,7.95-5.18Z"/><path class="cls-7" d="M205,79.68c-.73-1.16-1-1.79-1.7-3,.83-1.36,2.75-3.92,3.58-5.28-1.28,1-3.6,2.86-5,3.7-1.14-.65-1.72-.77-2.89-1.36-.09,0-.45-.36-.4-.27a31.06,31.06,0,0,0,1.89,3c-.86,1.37-2.78,3.65-3.54,5.07,1.35-.87,3.74-2.66,5.17-3.37Z"/><path class="cls-7" d="M190.05,96.49c-.41-.65-.54-1-1-1.66.46-.77,1.55-2.22,2-3-.72.54-2,1.62-2.81,2.09-.64-.36-1-.43-1.63-.76-.05,0-.25-.21-.22-.16a15.68,15.68,0,0,0,1.07,1.7c-.49.78-1.58,2.06-2,2.87.75-.49,2.11-1.51,2.92-1.91Z"/><path class="cls-7" d="M130.08,123.07c-.41-.65-.55-1-1-1.66.47-.77,1.56-2.22,2-3-.72.54-2,1.62-2.8,2.09-.64-.36-1-.43-1.63-.76,0,0-.26-.21-.23-.16a18.83,18.83,0,0,0,1.07,1.71c-.48.77-1.57,2-2,2.86.76-.49,2.11-1.5,2.92-1.9Z"/><path class="cls-7" d="M110.59,92.39c-.86-1.37-1.14-2.1-2-3.47,1-1.61,3.24-4.63,4.22-6.23-1.5,1.13-4.24,3.38-5.85,4.36-1.34-.76-2-.9-3.4-1.6-.11,0-.53-.42-.47-.32a36.54,36.54,0,0,0,2.23,3.56c-1,1.6-3.28,4.29-4.17,6,1.58-1,4.4-3.14,6.09-4Z"/><path class="cls-8" d="M109.19,71.54q-2,2.05-3.94,4.17"/><path class="cls-8" d="M104,72.86l6.51,1.26"/><path class="cls-8" d="M106.62,70.45c.51,2,1,4,1.46,5.94"/><path class="cls-8" d="M176,126.49q-2,2.07-3.93,4.17"/><path class="cls-8" d="M170.78,127.81l6.51,1.27"/><path class="cls-8" d="M173.41,125.4q.76,3,1.47,5.94"/><path class="cls-8" d="M142.3,40.16q-2,2.07-3.93,4.17"/><path class="cls-8" d="M137.11,41.48l6.51,1.27"/><path class="cls-8" d="M139.74,39.07c.51,2,1,4,1.46,5.94"/><path class="cls-8" d="M172.08,46.66q-2,2.07-3.93,4.17"/><path class="cls-8" d="M166.89,48l6.5,1.27"/><path class="cls-8" d="M169.52,45.57q.75,3,1.46,5.94"/><path class="cls-9" d="M109.19,71.54q-2,2.05-3.94,4.17"/><path class="cls-9" d="M104,72.86l6.51,1.26"/><path class="cls-9" d="M106.62,70.45c.51,2,1,4,1.46,5.94"/><path class="cls-7" d="M207.87,106.35a.63.63,0,0,0,0-1.25.63.63,0,0,0,0,1.25Z"/><path class="cls-7" d="M184.34,133.43a.63.63,0,0,0,0-1.25.63.63,0,0,0,0,1.25Z"/><path class="cls-7" d="M148.75,46.91a.63.63,0,0,0,0-1.25.63.63,0,0,0,0,1.25Z"/><path class="cls-7" d="M166.4,37.37a.63.63,0,0,0,0-1.25.63.63,0,0,0,0,1.25Z"/><path class="cls-7" d="M200,60.51a.63.63,0,0,0,0-1.25.63.63,0,0,0,0,1.25Z"/><path class="cls-7" d="M108.24,60.8a.63.63,0,0,0,0-1.25.63.63,0,0,0,0,1.25Z"/><path class="cls-7" d="M141.8,115.78a.63.63,0,0,0,0-1.25.63.63,0,0,0,0,1.25Z"/><path class="cls-7" d="M145.85,114a.63.63,0,0,0,0-1.25.63.63,0,0,0,0,1.25Z"/><path class="cls-7" d="M152.8,118.67a.63.63,0,0,0,0-1.25.63.63,0,0,0,0,1.25Z"/><path class="cls-7" d="M134.57,130a.63.63,0,0,0,0-1.25.63.63,0,0,0,0,1.25Z"/><path class="cls-7" d="M144.12,63.7a.63.63,0,0,0,0-1.25.63.63,0,0,0,0,1.25Z"/><path class="cls-7" d="M192.44,61.67a.63.63,0,0,0,0-1.25.63.63,0,0,0,0,1.25Z"/><path class="cls-7" d="M104.19,107.42a.38.38,0,0,0,0-.75.38.38,0,0,0,0,.75Z"/><path class="cls-7" d="M108.82,107.42a.38.38,0,0,0,0-.75.38.38,0,0,0,0,.75Z"/><path class="cls-7" d="M110,99.32a.38.38,0,0,0,0-.75.38.38,0,0,0,0,.75Z"/><path class="cls-7" d="M125.31,115.24a.38.38,0,0,0,0-.75.38.38,0,0,0,0,.75Z"/><path class="cls-7" d="M165.82,59.68a.38.38,0,0,0,0-.75.38.38,0,0,0,0,.75Z"/><path class="cls-7" d="M142.67,59.1a.38.38,0,0,0,0-.75.38.38,0,0,0,0,.75Z"/><path class="cls-7" d="M144.41,83.41a.38.38,0,0,0,0-.75.38.38,0,0,0,0,.75Z"/><path class="cls-7" d="M113.45,61.13a.38.38,0,0,0,0-.75.38.38,0,0,0,0,.75Z"/><path class="cls-7" d="M123.29,45.51a.38.38,0,0,0,0-.75.38.38,0,0,0,0,.75Z"/><path class="cls-7" d="M125.6,42.61a.38.38,0,0,0,0-.75.38.38,0,0,0,0,.75Z"/><path class="cls-7" d="M117.5,46.08a.38.38,0,0,0,0-.75.38.38,0,0,0,0,.75Z"/><path class="cls-7" d="M156.85,33.35a.38.38,0,0,0,0-.75.38.38,0,0,0,0,.75Z"/><path class="cls-7" d="M160.61,36a.38.38,0,0,0,0-.75.38.38,0,0,0,0,.75Z"/><path class="cls-7" d="M157.72,39.43a.38.38,0,0,0,0-.75.38.38,0,0,0,0,.75Z"/><path class="cls-7" d="M194.75,51.58a.38.38,0,0,0,0-.75.38.38,0,0,0,0,.75Z"/><path class="cls-7" d="M206.62,112.05a.38.38,0,0,0,0-.75.38.38,0,0,0,0,.75Z"/><path class="cls-7" d="M193,130.86a.38.38,0,0,0,0-.75.38.38,0,0,0,0,.75Z"/><path class="cls-7" d="M155.69,112.05a.38.38,0,0,0,0-.75.38.38,0,0,0,0,.75Z"/><path class="cls-7" d="M156.85,127.1a.38.38,0,0,0,0-.75.38.38,0,0,0,0,.75Z"/><path class="cls-7" d="M116.05,126.23a.38.38,0,0,0,0-.75.38.38,0,0,0,0,.75Z"/><path class="cls-7" d="M159.16,47.24a.38.38,0,0,0,0-.75.38.38,0,0,0,0,.75Z"/><path class="cls-7" d="M179.71,46.37a.38.38,0,0,0,0-.75.38.38,0,0,0,0,.75Z"/><path class="cls-6" d="M133.56,147.71c2.6.82,6.46,2.79,9.19,2.87a13,13,0,0,0,5.52-1.63,92.36,92.36,0,0,1,12.06-4.48s4.89-1.63,9.63-2.65c7.27-.79,14.63-1.57,21.88-.62a14.62,14.62,0,0,1,4.42,1.14,6.22,6.22,0,0,1,3.16,3.17c-.25,1.17-1.82,1.64-3,1.81-10,1.43-19.59,4.87-29.1,8.29l-21.44,7.7c-2.8,1-6,2-8.62.54"/><path class="cls-6" d="M99.91,148.32c3.68,2.12,8.22,1.8,12.46,1.42,6.39-.58,15.52,1.11,21.81-.16,13-2.61,20-4.29,31.3-6,1.46-.22,3.79-.29,5.22-.67-5.65-6.43-12.68-7.05-19.92-7.23-6.2-.16-12.65.92-18.77,1.94-2.3.39-5.13,1.37-7.38.76a13.08,13.08,0,0,1-3.85-1.91,98.56,98.56,0,0,0-15.11-8.35"/><path class="cls-10" d="M194.71,144.92a4.08,4.08,0,0,0-1.73.68,1.19,1.19,0,0,0-.41,1.45,2.15,2.15,0,0,0,1.45,1c2.62.41,5.12-.75,7.73-.9,2.92-.16.08-1.49-1.18-1.73A19.42,19.42,0,0,0,194.71,144.92Z"/><path class="cls-10" d="M206,143.84a2.79,2.79,0,0,0-1,.41,1.05,1.05,0,0,0-.46.9,1.08,1.08,0,0,0,.84.86,3,3,0,0,0,1.29,0c1.38-.25,2.74-.57,4.09-.95.7-.2,1.39-.41,2.08-.65.43-.14,1.23-.26.68-.78-.31-.29-1.34-.24-1.75-.27a18.14,18.14,0,0,0-1.95,0A17.81,17.81,0,0,0,206,143.84Z"/><path class="cls-10" d="M174.65,144.65a20.54,20.54,0,0,0-13.55-2.91.87.87,0,0,0-.57.21c-.34.34-.11,1.34.16,1.73a3.25,3.25,0,0,0,2.76,1.46c3.36.07,7,0,10.3.29a1.07,1.07,0,0,0,.64-.09C174.58,145.23,174.84,144.77,174.65,144.65Z"/><path class="cls-6" d="M76.08,109.27a15.63,15.63,0,0,1,8.22-.7A15.84,15.84,0,0,1,89,110.82a52.62,52.62,0,0,1,7.52,5.85"/></g></svg>