<svg id="Capa_1" data-name="Capa 1" xmlns="http://www.w3.org/2000/svg" viewBox="0 0 533.54 992.92"><defs><style>.cls-1{fill:#fff;}</style></defs><path class="cls-1" d="M456.84,496.4c.11,104.69-84.75,190.27-190.06,190.19a190,190,0,0,1-190.08-190c-.14-105.57,86.12-191.23,192-190.23C372.25,307.31,457,391.9,456.84,496.4Zm-41.18,55a9.09,9.09,0,0,0-1.29.36c-3.73,1.72-7.45,3.46-11.17,5.19q-14,6.54-28,13.12a2.07,2.07,0,0,0-1.09,1.36c-.44,6.1-.79,12.22-1.18,18.32-.42,6.62-.87,13.24-1.29,19.86-.13,2-.22,3.94-.34,6.2.64-.47,1-.7,1.37-1,2.09-1.93,4.24-3.81,6.25-5.83a158,158,0,0,0,33.64-49.38c1.16-2.68,2.07-5.47,3.09-8.21.27-.59.58-1.16.79-1.77a157.3,157.3,0,0,0,7.49-31.53,163.19,163.19,0,0,0,.95-31.63c-.13-1.93-.35-3.86-.53-5.82a5.08,5.08,0,0,0-.59.09c-3.17,1.11-6.34,2.2-9.48,3.37a3.27,3.27,0,0,0-1.46,1.17c-5.26,7.72-10.48,15.48-15.75,23.2a2.13,2.13,0,0,0-.18,2.42Q404,526,411,541.12C412.58,544.54,414.11,548,415.66,551.44ZM321.73,350.31a15.36,15.36,0,0,1,.91,1.5q9,19.33,18.05,38.7a1.86,1.86,0,0,0,1.87,1.29c3.31.12,6.62.39,9.93.6L377.93,394c2.41.15,4.81.33,7.26.5-.25,4.23-.5,8.24-.74,12.31l9.21-3.34c-.14-.22-.24-.42-.38-.6a158.21,158.21,0,0,0-33.39-32.58,156.45,156.45,0,0,0-36.48-19.69,8.12,8.12,0,0,0-1.72-.27,5.8,5.8,0,0,0-1.27-.86,164.78,164.78,0,0,0-24-6.53,159.38,159.38,0,0,0-30-2.8A155.49,155.49,0,0,0,242.18,342c-2,.31-4,.72-6.23,1.14.51.39.72.57.94.72q19.56,13.25,39.11,26.51a1.9,1.9,0,0,0,2.16.17q16-7.51,32-14.95C314,353.81,317.85,352.08,321.73,350.31Zm-.12-1.28a12,12,0,0,0,1.34.68,157.27,157.27,0,0,1,24.6,11.76c3,1.78,5.95,3.68,9,5.56,2.69-3.46,5.15-7,7.86-10.43l.45.35-7.63,10.33c4.88,3.91,9.82,7.6,14.46,11.64s8.89,8.37,13.43,12.69c-3.61-6.42-3.07-12.42,1.64-18.37-5.64-4.63-11-9.39-16.78-13.7a168,168,0,0,0-35.3-20.18c-2.35-1-4.79-1.77-7.19-2.65a20.54,20.54,0,0,0-2-.94,180.42,180.42,0,0,0-27.83-7.44,151,151,0,0,0-29.53-2.75c-8.11.14-16.24.7-24.31,1.59a158.75,158.75,0,0,0-36.8,8.88,174.57,174.57,0,0,0-43.68,23.43c-.33.24-.62.52-1,.81,3.8,5.9,3.66,11.72,0,17.56a2.81,2.81,0,0,0,.86-.49A154.78,154.78,0,0,1,188.15,360l6.2-3.5,0,0c.47-.18,1-.31,1.41-.53a149.86,149.86,0,0,1,25.8-10c4.7-1.31,9.45-2.46,14.37-3.73-.93-4.27-1.87-8.61-2.82-13l.53-.11q1.5,6.54,3,13.05c3.31-.48,6.44-.94,9.58-1.37a155.5,155.5,0,0,1,35.1-.68,157.55,157.55,0,0,1,38.06,8.23C320.06,348.69,320.84,348.84,321.61,349ZM265,397a94.09,94.09,0,0,0-17.82,1.87A105,105,0,0,0,199,421.63a100.63,100.63,0,0,0-28.23,37.86,98.83,98.83,0,0,0-5.45,60.39c5.77,24.53,19.05,44.16,39.29,59,17.1,12.56,36.44,19.1,57.6,20.2a105.08,105.08,0,0,0,30.59-2.89,103.71,103.71,0,0,0,50.52-28.65c17.55-18,27.15-39.68,28.51-64.84a94.33,94.33,0,0,0-6.2-39.3c-8.63-22.48-23.53-39.74-44.2-51.93C304.77,401.68,286.68,397,265,397ZM159.75,357.48c.23-.14.39-.23.54-.34a178,178,0,0,1,199.54-8.91,171.34,171.34,0,0,1,28.52,21.92,1.58,1.58,0,0,0,2.27.23,15.44,15.44,0,0,1,11.06-1.95,64.79,64.79,0,0,1,6.24,1.87c-67-77.88-191.4-85.42-268-14.31A18.43,18.43,0,0,1,150,353.66,17.24,17.24,0,0,1,159.75,357.48Zm-31.63,268c39.16,40.57,86.75,61.42,143.37,60.33,43.93-.85,82.66-16.08,116.55-43.93a21.45,21.45,0,0,1-9,.41,17.55,17.55,0,0,1-8.09-4c-.49.33-.91.61-1.33.91A178.15,178.15,0,0,1,220,665.87a175.32,175.32,0,0,1-45.91-19.71,172.61,172.61,0,0,1-28.32-21.5,1.39,1.39,0,0,0-1.94-.2,21,21,0,0,1-3.58,1.55A18.71,18.71,0,0,1,128.12,625.48Zm-39-63.88c-.14-.82-.31-1.64-.4-2.47a43.79,43.79,0,0,1,4.46-24.75,3.54,3.54,0,0,0,.27-2.08,177.26,177.26,0,0,1-3.54-31.57,173.37,173.37,0,0,1,21.14-86.81,175.48,175.48,0,0,1,24.36-34.17,1.36,1.36,0,0,0,.12-2.1,14.41,14.41,0,0,1-1.83-14.21c.38-1,.95-1.93,1.59-3.2-23.55,22.13-47.09,57.86-55,102.59A186.46,186.46,0,0,0,89.13,561.6Zm358-123.54h-.39c0,.5.09,1,.14,1.51s.11,1,.14,1.53a40.35,40.35,0,0,1-6,24.08,2.45,2.45,0,0,0-.24,1.56,183.85,183.85,0,0,1,2.54,26.48,169.65,169.65,0,0,1-2.16,31.43,173.42,173.42,0,0,1-42.43,88.61l-3.84,4.23c4,4.93,4.64,10.28,2.5,16.1,26.7-25.68,44.77-56.34,53.48-92.33C459.26,506.53,457.86,472.1,447.12,438.06ZM296.86,652.51c-.63-.5-.87-.71-1.12-.88q-18.8-12.74-37.57-25.48a2.44,2.44,0,0,0-2.79-.2q-20.58,9.66-41.21,19.26c-.39.18-.75.41-1.35.74a147.07,147.07,0,0,0,21.77,6.12,160.17,160.17,0,0,0,48.5,2.34C287.56,654,292,653.19,296.86,652.51Zm-62-309.2a159.8,159.8,0,0,0-73.93,36.83,12.3,12.3,0,0,0,1.47.3l23.5,1.47c6.67.42,13.35.74,20,1.27a2.84,2.84,0,0,0,3-1.47q12.13-18,24.35-36C233.75,345,234.19,344.33,234.85,343.31Zm-125.76,174c.49-.25.77-.41,1.06-.53,2.91-1.24,5.84-2.45,8.73-3.74a4.91,4.91,0,0,0,2.05-1.48c5.16-7.5,10.25-15.06,15.38-22.59a2,2,0,0,0,.19-2.27q-9.14-19.46-18.19-39c-.28-.62-.59-1.22-1.06-2.17a9.28,9.28,0,0,0-1,1.6A156.79,156.79,0,0,0,109.09,517.27Zm7.79-72,.3.33c.47-.2.94-.38,1.4-.6,11.75-5.48,23.47-11,35.28-16.4,2.36-1.07,3.34-2.22,3.47-5,.6-12.55,1.53-25.08,2.34-37.62.09-1.51.15-3,.25-5A158.39,158.39,0,0,0,116.88,445.26ZM370.27,617a4.54,4.54,0,0,0-.7-.24c-5.55-.37-11.09-.75-16.64-1.11-8.63-.55-17.25-1.07-25.88-1.65a2.12,2.12,0,0,0-2.18,1q-12,17.73-24,35.42c-.21.31-.37.66-.68,1.24A159.59,159.59,0,0,0,370.27,617Zm58.65-60.57a168.3,168.3,0,0,0,9.81-42.24l-12.94-1.06,0-.56,13,1A171.49,171.49,0,0,0,437.5,470a46.69,46.69,0,0,1-12,9.84,1.47,1.47,0,0,0-.42,1.16c.21,4.06.53,8.11.69,12.17a140.55,140.55,0,0,1-3.13,36.2c-1.54,7-3.73,13.76-5.69,20.62-.27,1-.23,1.4.78,1.78,2.06.75,4.06,1.65,6.09,2.49ZM362.11,453.71l.28-.12c-.33-.84-.62-1.7-1-2.52q-5-10.74-10-21.44A4.36,4.36,0,0,0,350,428q-23.49-15.95-47-31.83a4.41,4.41,0,0,0-2.06-.73q-13.63-.93-27.28-1.75c-8.16-.51-16.32-1-24.49-1.47a6,6,0,0,0-2.82.45q-26,12.08-52,24.28a5.06,5.06,0,0,0-2,1.67q-15,22-29.8,44a6.5,6.5,0,0,0-1,2.95c-.56,7.93-1,15.86-1.53,23.79s-.8,16.07-1.56,24.07c-.42,4.47,1.67,7.8,3.91,11.15,1.52,2.28,3.34,4.37,5,6.54l.61.77a3.69,3.69,0,0,0-.26-1.41,95.78,95.78,0,0,1-5.33-27.4,94.47,94.47,0,0,1,3.13-30.13c7.51-27.16,23.62-47.87,47.85-62.08,20.52-12,42.8-16.38,66.44-13.78a103.48,103.48,0,0,1,30.72,8.18c22.27,9.86,39.32,25.4,50.79,46.95C361.52,452.7,361.82,453.2,362.11,453.71Zm-194.18,184c.44.33.78.63,1.16.88a174.65,174.65,0,0,0,39.13,19.8,178.41,178.41,0,0,0,38.5,8.94c3.44.42,3.46.46,4.07-3,.52-3,1-5.94,1.44-8.78-5.83-.92-11.51-1.7-17.15-2.73A141.25,141.25,0,0,1,213,646.7c-1.18-.42-1.78-.2-2.26,1-1.17,2.84-2.44,5.65-3.69,8.47a11.65,11.65,0,0,1-.61,1.09L206,657c1.59-3.66,3.18-7.31,4.68-10.79-6.08-2.82-12.19-5.4-18-8.46s-11.47-6.59-17.33-10Zm-18.74-34.83-.29.51a158.48,158.48,0,0,0,61.47,41.75c-.37-.84-.54-1.27-.74-1.69q-8-17.05-15.92-34.12c-1.83-3.92-1.82-3.84-6.09-4.07-6.76-.36-13.51-.85-20.27-1.27Q158.28,603.38,149.19,602.84Zm88.3-251.07-21.65,32c2.06.15,3.77.29,5.48.4q10.49.68,21,1.32a9.77,9.77,0,0,0,5.18-.6c7.11-3.42,14.29-6.7,21.44-10,.43-.2.84-.46,1.46-.8ZM263.88,622l32.87,22.26c7-10.29,13.84-20.43,20.86-30.81l-9.76-.64c-6.62-.41-13.24-.84-19.87-1.19a6.24,6.24,0,0,0-2.81.46c-4.94,2.23-9.82,4.56-14.73,6.86Zm37.54,42.9a172.35,172.35,0,0,0,66.65-29.1c-.73-2.84-1.82-5.36-1.94-7.93s.75-5.15,1.15-7.52c-2.26,1.71-4.8,3.68-7.4,5.55a151.12,151.12,0,0,1-39.57,20.7c-6.38,2.19-13,3.75-19.49,5.57-1.05.29-2.05.54-1.74,2C299.85,657.69,300.61,661.19,301.42,664.92Zm-50-43.18c-.34-.29-.47-.42-.62-.52q-9.39-6.37-18.8-12.73a3.29,3.29,0,0,0-1.56-.49q-14.46-1-28.94-1.89c-.47,0-1,0-1.69,0,5.14,11,10.15,21.75,15.22,32.62ZM371.27,515.41l-.14,0c0,.12-.1.24-.13.37a100.22,100.22,0,0,1-10.14,29,102.74,102.74,0,0,1-44,43.13,105.54,105.54,0,0,1-40.52,11.6,108.53,108.53,0,0,1-30.26-1.69,104.59,104.59,0,0,1-36-14.3A102.4,102.4,0,0,1,174,544.8c-.43-.8-.88-1.58-1.33-2.37.18,1.62.47,3.17.78,4.72a20.11,20.11,0,0,0,.93,4.21c2,4.53,4.13,9,6.27,13.46a4.28,4.28,0,0,0,1.37,1.69Q206.68,583.3,231.42,600a4.08,4.08,0,0,0,1.91.75c4.89.36,9.79.63,14.69.94l19.44,1.22c6.76.42,13.52.88,20.29,1.26a5,5,0,0,0,2.27-.47q24.53-11.38,49-22.86a4.53,4.53,0,0,0,1.71-1.55q14-20.58,27.94-41.19a7.32,7.32,0,0,0,1.47-3.83c.24-4.58.57-9.15.85-13.72C371.11,518.84,371.18,517.12,371.27,515.41Zm24.87,76,.36-.49,9.83,7.18a169.56,169.56,0,0,0,22.35-41l-12.37-5.13A160.56,160.56,0,0,1,375.91,613a18.38,18.38,0,0,1,16.39,2.12l13.82-16.33ZM164.07,423.59a7.36,7.36,0,0,0,1-.29c7.32-3.41,14.64-6.8,21.94-10.26a4.7,4.7,0,0,0,1.71-1.55c4.75-6.94,9.45-13.91,14.16-20.87.25-.37.46-.76.8-1.35l-37.27-2.35C165.61,399.25,164.85,411.35,164.07,423.59ZM318.41,359l-35,16.31c.32.27.44.41.59.51q9.68,6.57,19.37,13.12a3.7,3.7,0,0,0,1.69.54c1.91.16,3.83.23,5.74.35L330.42,391c.92.05,1.83.13,3,.22ZM374.54,564.3l32.58-15.21c-5.1-10.94-10.14-21.73-15.18-32.52l-.42-.13a2.24,2.24,0,0,1-.2.53q-7.38,10.92-14.75,21.83a3.43,3.43,0,0,0-.54,1.54q-.58,8.32-1.1,16.64C374.79,559.31,374.68,561.63,374.54,564.3Zm-44.06,42.54c.69.08,1,.13,1.41.16,5.5.35,11,.72,16.5,1.06,5.26.32,10.53.61,15.8.94.74,0,1.23,0,1.27-1,.13-2.85.35-5.69.53-8.53q.66-10.21,1.3-20.42c.11-1.73.19-3.47.28-5.36a9,9,0,0,0-.86.29c-6.56,3.05-13.12,6.09-19.66,9.19a4,4,0,0,0-1.5,1.38c-3.88,5.67-7.72,11.36-11.57,17Zm-189-125.71.46-.63q6.24-9.22,12.48-18.47a3,3,0,0,0,.46-1.43q.72-10.49,1.37-21c.1-1.61.17-3.23.26-5.12-10.16,4.74-20.12,9.38-30.21,14.1Zm240.7,160.78a15.63,15.63,0,0,0,11.06-4.33,13.87,13.87,0,0,0,3.23-16.48c-4.85-9.56-18.21-11.5-25.74-3.75a13.91,13.91,0,0,0-1,18.65A15.37,15.37,0,0,0,382.22,641.91Zm-85.29,3.24-2.81-1.9q-14.91-10.1-29.83-20.17c-.43-.29-1.1-.67-1.46-.53-1.72.68-3.37,1.53-5.22,2.4.55.42.91.7,1.28,1l37.48,25.39c2,1.33,2.35,1.25,3.68-.72l30.39-44.84q6.75-10,13.51-20c.25-.36.44-.75.77-1.32a5.76,5.76,0,0,0-.73.18c-2.76,1.27-5.52,2.52-8.25,3.85a3.76,3.76,0,0,0-1.26,1.25q-4.86,7-9.66,14.1c-5.1,7.54-10.16,15.1-15.25,22.64C305.39,632.68,301.19,638.85,296.93,645.15ZM399,368.54a47,47,0,0,0-5.83,1.32c-10,3.59-13.08,15.76-6,23.28a16.41,16.41,0,0,0,21.68,1.73A14.1,14.1,0,0,0,412,375.29C408.8,371,404.41,368.92,399,368.54ZM135.37,626.41a45.43,45.43,0,0,0,6.06-1.49c10.17-3.92,12.78-16.33,5-23.79-4.08-3.91-9.05-5-14.54-4A14.73,14.73,0,0,0,120,614.33C121.38,621.11,127.88,626.12,135.37,626.41ZM237.32,350.89l5.24,3.53q13.75,9.3,27.51,18.6a2.2,2.2,0,0,0,1.59.48c1.52-.57,3-1.33,4.69-2.14l-40.9-27.7-46,67.85.26.27c2.73-1.28,5.48-2.51,8.19-3.84a4.82,4.82,0,0,0,1.75-1.51Q213.36,386.3,227,366.14C230.39,361.11,233.8,356.09,237.32,350.89Zm141.24,49.42-34.13-2.15a8.48,8.48,0,0,0,.29,1q5.85,12.57,11.72,25.12a2.43,2.43,0,0,0,.61.93c2.15,1.53,4.34,3,6.52,4.51.2-.25.33-.34.37-.46a41.61,41.61,0,0,1,13.32-17.69,1.6,1.6,0,0,0,.63-1C378.15,407.19,378.34,403.84,378.56,400.31ZM318.7,358.13c.82,1.74,1.58,3.34,2.32,4.95q6.28,13.46,12.58,26.9c.23.49.7,1.17,1.12,1.23,1.83.25,3.69.3,5.82.44l-19-40.68-73.89,34.48.1.35c3.29.21,6.59.43,9.88.6A3.14,3.14,0,0,0,259,386q9.65-4.49,19.28-9l25.31-11.83ZM103,441.39a167,167,0,0,0-9.07,45.78,3,3,0,0,0,.68.19c4,0,8,0,12,0,1.06,0,1.06-.7,1.13-1.4.2-2.23.37-4.46.61-6.69a146.13,146.13,0,0,1,4.33-22.64c1-3.59,2.12-7.13,3.23-10.82Zm52.65,18.3.41.12c1.83-2.73,3.67-5.46,5.49-8.2a1.48,1.48,0,0,0,.18-.66q.7-10.62,1.4-21.23c.23-3.67.41-7.35.64-11q.79-12.58,1.61-25.18c.15-2.36.32-4.71.48-7.12a7.36,7.36,0,0,1,.87,0c5.69.33,11.38.65,17.06,1,6.48.41,13,.85,19.44,1.26.36,0,.9,0,1-.16,1.06-1.43,2-2.92,3.16-4.57L160.58,381C158.91,407.37,157.25,433.53,155.6,459.69Zm97.3,195.77c-.66,4-1.32,8-2,12.2A171.76,171.76,0,0,0,300.8,665c-.82-3.72-1.64-7.31-2.41-10.91a1.2,1.2,0,0,0-1.57-1.1c-5.77.81-11.53,1.76-17.33,2.31-4.68.44-9.4.47-14.11.5C261.28,655.83,257.18,655.59,252.9,655.46ZM157,427.76l-38.85,18.13,32.78,70.2.41-.13a5.06,5.06,0,0,0,.18-.77c.2-3,.42-6,.55-9a4.43,4.43,0,0,0-.45-1.87c-1.72-3.82-3.48-7.64-5.25-11.44Q138.2,475.44,130,458c-1.5-3.2-3-6.41-4.48-9.66l1.36-.68q14.28-6.66,28.55-13.35c.48-.22,1.1-.7,1.17-1.14C156.83,431.49,156.86,429.8,157,427.76ZM414.8,550.88c-.26-.61-.44-1.08-.66-1.54q-3.81-8.19-7.65-16.37-7.87-16.87-15.74-33.77-4.46-9.57-8.95-19.12a10.19,10.19,0,0,0-1.43-1.83l-.43.21c-.19,2.82-.41,5.65-.53,8.48a4.77,4.77,0,0,0,.45,2.13q6.38,13.79,12.81,27.52l11.19,24c1.36,2.9,2.71,5.81,4.11,8.81l-10.15,4.74c-7.32,3.42-14.64,6.82-22,10.26-.54.25-1.33.71-1.39,1.15a30.13,30.13,0,0,0-.07,4.18Zm-44.19,65.27c1.59-25.09,3.16-50,4.73-74.89l-.42-.06c-1.15,1.7-2.2,3.48-3.48,5.08a8.63,8.63,0,0,0-1.85,5.56c0,1.12-.1,2.24-.18,3.36-.32,4.5-.69,9-1,13.5-.19,2.95-.25,5.92-.43,8.88q-.75,12.58-1.56,25.18c-.14,2.31-.33,4.61-.51,7-2.22-.13-4.22-.23-6.22-.36l-28.53-1.84c-.4,0-1-.06-1.18.17-1.31,1.77-2.54,3.59-3.95,5.63ZM389,371.34c-36.05-33.13-78.25-49.75-127.11-48.67-37.53.84-71.28,13-101.48,35.17l1.57,1.82c34.43-25.09,72.77-36.81,115.12-34.36s79,18.82,110,47.67ZM148.39,354.22a36.85,36.85,0,0,0-4.08.7c-10.56,2.88-14.56,15.4-7.5,23.38a16.38,16.38,0,0,0,23,1.15,14,14,0,0,0,2.8-17.5C159.6,356.85,154.88,354.47,148.39,354.22ZM368.93,636.1c-34.1,24-71.85,35.12-113.37,32.51S178,650.08,147.2,622l-1.66,1.5c64.69,61.7,163.25,60.89,224.81,14.26l-.9-1.05ZM171.84,567.83a2.47,2.47,0,0,0-.29.44,42.47,42.47,0,0,1-17.3,21.88,1.77,1.77,0,0,0-.74,1.08c-.17,1.15-.19,2.32-.28,3.48,0,.67.13,1,.9,1.07,3.17.17,6.34.38,9.51.58,5.16.33,10.33.68,15.5,1,3,.19,6,.34,9.2.52-.32-.72-.53-1.23-.76-1.73-3.63-7.77-7.35-15.51-10.83-23.35A10,10,0,0,0,171.84,567.83Zm42.95,71.72c-.52-1.06-1-2.06-1.48-3.06q-6.84-14.65-13.7-29.3c-.24-.49-.71-1.18-1.13-1.23-1.84-.23-3.7-.25-5.68-.35.18.47.29.82.44,1.15q8.73,18.72,17.43,37.45c.62,1.35,1.22,1.38,2.45.8q24.85-11.73,49.77-23.35c6.72-3.15,13.47-6.22,20.2-9.33.44-.21.86-.44,1.29-.67a60.58,60.58,0,0,0-7.73-.77,3.12,3.12,0,0,0-1.31.41q-8.94,4.13-17.87,8.29-10.89,5.08-21.77,10.2ZM116,445.18c2.53-5.75,4.8-11.42,7.5-16.89s5.8-10.71,8.78-16.14l-11.63-7a170.54,170.54,0,0,0-17.44,35.66Zm36.78,146c-1.88.93-4,1.51-5.31,2.83-.78.77-.37,2.75-.51,4.18,0,.37-.09.74-.12,1.12a2.71,2.71,0,0,0,2.51,2.91c12.58.85,25.15,1.72,37.73,2.54,5.25.34,10.52.52,15.77.83,8.49.51,17,1.08,25.46,1.61.46,0,.92,0,1.38,0-2.93-2.33-5.9-4.35-8.88-6.34a2.21,2.21,0,0,0-1.06-.34c-5.72-.41-11.45-.82-17.18-1.18-4.83-.31-9.67-.53-14.5-.83q-13.71-.82-27.42-1.71c-2.63-.16-5.27-.35-7.87-.53ZM322,607l-87.92-5.55c2.94,2.37,5.94,4.42,9,6.42a3,3,0,0,0,1.33.29c3.26.22,6.53.41,9.79.63,8,.53,16,1.09,24,1.6,5.2.33,10.41.58,15.61.9,7.78.49,15.57,1,23.35,1.49a1.45,1.45,0,0,0,1.12-.35C319.5,610.74,320.65,609,322,607ZM96.62,528.74c.41-.48.62-.71.81-1a43.08,43.08,0,0,1,10-9.31,1.75,1.75,0,0,0,.93-1.92,159,159,0,0,1-1-26.45c0-.68,0-1.36,0-2H93.77A179.22,179.22,0,0,0,96.62,528.74Zm85.74,38.83-.29.22a8.93,8.93,0,0,0,.3.87c1,2.29,2.07,4.6,3.21,6.84a5.09,5.09,0,0,0,1.63,1.82Q205.09,589.5,223,601.61c3.09,2.09,6.25,4.08,9.34,6.18,6.37,4.33,12.71,8.71,19.08,13.06.29.19.75.46,1,.36,1.76-.75,3.49-1.58,5.45-2.5Zm63.18-175.31,0-.31c-2.49-.18-5-.33-7.47-.56a9,9,0,0,0-5.38,1.05c-1.63.91-3.38,1.59-5.07,2.38Q207.8,404.09,188,413.35c-7.55,3.53-15.13,7-22.69,10.53-.48.23-1.2.58-1.25.95-.24,1.77-.29,3.56-.43,5.62Zm-106.48-11A167.55,167.55,0,0,0,121,404.56l11.81,7.18a171.38,171.38,0,0,1,24.87-29.66C151.28,385.28,145.12,385.05,139.06,381.24ZM388.71,509.65,341.53,579.3a1.85,1.85,0,0,0,1.19-.16c2.12-1,4.2-2,6.36-2.93a7.08,7.08,0,0,0,3.3-2.84q11.55-17.22,23.17-34.38c5-7.46,10.14-14.89,15.19-22.35a2.19,2.19,0,0,0,.43-1.61C390.5,513.31,389.64,511.65,388.71,509.65ZM144.63,487.77l46.83-69.19c-5,2.06-10.45,3.33-12.82,8.94a13.38,13.38,0,0,1-1.4,2.09q-7.76,11.49-15.52,23-9.67,14.28-19.37,28.56a1.56,1.56,0,0,0-.2,1.25C142.87,484.11,143.7,485.78,144.63,487.77ZM305.71,390.1l-.08.33c2.43,1.63,4.85,3.29,7.3,4.89a2.89,2.89,0,0,0,1.35.31q4.55.31,9.09.59,12.36.75,24.72,1.5c10,.62,19.94,1.27,29.92,1.88.81,0,1.21.24,1.13,1.13-.1,1.07-.12,2.15-.19,3.22l-.37,6.49c1.52-.91,2.77-1.71,4.08-2.41a2.14,2.14,0,0,0,1.25-2c.07-1.82.21-3.64.31-5.46s.2-3.6.3-5.51Zm-5.18,4.64a5.13,5.13,0,0,0-.47-.57c-2.24-1.52-4.47-3.06-6.74-4.54a3,3,0,0,0-1.45-.42q-17.52-1.18-35.05-2.32c-4.69-.31-9.39-.55-14.09-.84-8.76-.53-17.52-1.08-26.29-1.6-.39,0-1,0-1.15.24-1,1.39-2,2.85-3.13,4.53ZM349.77,427l.32-.24c-1.3-2.7-2.59-5.42-3.93-8.1-.17-.33-.66-.5-1-.74-10.06-6.89-20.09-13.82-30.18-20.66-10.5-7.11-21.07-14.14-31.61-21.18a1.48,1.48,0,0,0-1.12-.25c-1.53.65-3,1.38-4.78,2.2ZM94.3,532.14c.69-1.17,2-2,1.64-3.63a172,172,0,0,1-3-32.33,156.71,156.71,0,0,1,2.59-29,171.19,171.19,0,0,1,39.57-82.45c1.13-1.28,2.24-2.59,3.4-3.94l-1.68-1.49c-15.55,16.31-34.58,44.29-42.5,81.68A169.67,169.67,0,0,0,94.3,532.14ZM394.45,617A175,175,0,0,0,440,528c3.2-16.73,3.28-54.89-.14-60.85-1.55,1.15-1.82,2.63-1.51,4.52.59,3.55,1,7.12,1.32,10.7a170.61,170.61,0,0,1-27,107.59c-1.86,2.84-3.8,5.63-5.71,8.47l1.29,1.19-.19.3-1.5-.75L392.79,615.5Zm46.47-195.15c-2.32-8.43-21.58-40.35-26.67-43.88,2.14,6.2.9,11.6-3.59,16.31a1.53,1.53,0,0,0,.09,1.37c1.63,2.51,3.29,5,5,7.42a4.2,4.2,0,0,0,1.9,1.47A40.29,40.29,0,0,1,433,413.29C435.93,416.07,438.51,419.21,440.92,421.83ZM167.36,637.35l7.58-10.22A171.54,171.54,0,0,1,151,606.84a15.57,15.57,0,0,1-3.31,14.59A171.24,171.24,0,0,0,167.36,637.35ZM368,568l-77.13,36.06a41.22,41.22,0,0,0,5.47.71,9.16,9.16,0,0,0,5.37-1.08c2.65-1.36,5.4-2.55,8.11-3.81l36.43-17.06c6.76-3.16,13.54-6.28,20.3-9.44.42-.2,1-.55,1.09-.91C367.83,571.12,367.86,569.73,368,568ZM89.11,554.12a42.27,42.27,0,0,0,42.45,42.21c23-.12,41.92-19.33,41.84-42.48a42.15,42.15,0,0,0-84.29.27ZM370.73,534.4l.35.18c1.68-2.55,3.38-5.09,5-7.66a2.42,2.42,0,0,0,.22-1.09c.21-3.54.4-7.08.62-10.63.42-6.57.87-13.14,1.29-19.71q.52-8.44,1-16.91a1.53,1.53,0,0,0-.32-1.12c-1.35-1.12-2.77-2.16-4.38-3.39C373.26,494.35,372,514.37,370.73,534.4ZM337.19,397.71c8.1,17.34,16,34.32,23.88,51.18.19-3.79.38-7.59.54-11.4a3,3,0,0,0-.32-1.33c-.73-1.64-1.5-3.27-2.27-4.89-1.06-2.23-2.16-4.44-3.2-6.68-4-8.54-7.9-17.1-11.89-25.63a1.49,1.49,0,0,0-1-.82C341.17,397.94,339.36,397.86,337.19,397.71Zm-176.4,67.92-.33-.12c-1.85,2.74-3.71,5.47-5.52,8.23a2.86,2.86,0,0,0-.31,1.35c-.4,6.43-.78,12.87-1.19,19.3-.41,6.61-.78,13.21-1.32,19.81-.14,1.69.09,2.81,1.76,3.56a27.46,27.46,0,0,1,3.48,2.22C158.51,501.67,159.65,483.65,160.79,465.63ZM119.55,615.32c-1.38-5.87.28-10.77,4.47-15-.76-1.05-1.54-2-2.21-3.1a5,5,0,0,0-3-2.21,41.69,41.69,0,0,1-21.21-14.62,6.55,6.55,0,0,1-.44-.78C98.3,585.36,115.07,611.64,119.55,615.32ZM174.3,552.9l-.36,0c0,1.11.06,2.22,0,3.32-.12,1.84-.37,3.68-.5,5.52a6,6,0,0,0,.1,2.65c2.22,5,4.56,9.87,6.86,14.79,2.75,5.89,5.48,11.77,8.24,17.64.2.43.57,1,.91,1.09,1.89.22,3.79.28,6,.4Zm229.77-68.19c1.35-.06,2.71-.07,4.06-.2a33.8,33.8,0,0,0,4-.56c12.17-2.51,21.79-8.77,28.44-19.38,8.32-13.29,7.92-31-1.45-43.57-10.85-14.57-25.64-20.16-43.38-17.07a39.61,39.61,0,0,0-28.16,19.46c-7.87,13.29-8.1,27-.36,40.33C375.34,477.66,388.14,484.1,404.07,484.71ZM187.12,578.06l-.21.27c.11.25.2.51.32.76,2.76,5.92,5.57,11.81,8.25,17.76a2.62,2.62,0,0,0,2.63,1.75c5.64.29,11.27.7,16.91,1,1.18.07,2.36,0,4,0ZM314.91,396.33l-.11.3,30.67,20.78a3.18,3.18,0,0,0-.14-.72c-2.81-6.05-5.61-12.1-8.49-18.12a2.25,2.25,0,0,0-1.59-1c-3.95-.33-7.92-.56-11.88-.8C320.55,396.63,317.73,396.49,314.91,396.33Zm89.47,89a50.62,50.62,0,0,1-21.88-5.29c3.43,7.33,6.85,14.66,10.39,22.24ZM233.23,391.49l-.07-.36c-6.61-.41-13.22-.78-19.83-1.27a2.38,2.38,0,0,0-2.5,1.22c-3.15,4.75-6.36,9.45-9.54,14.17-.25.37-.47.76-.71,1.13l.2.25Zm100.4,198.33-.24-.25-32.73,15.28c.61.13.77.19.94.2,6.62.44,13.23.9,19.85,1.28a2.13,2.13,0,0,0,1.47-.76c.92-1.18,1.71-2.45,2.55-3.69Zm45.58-100.2c-.77,12.17-1.5,23.9-2.24,35.63l.4.22a2.33,2.33,0,0,1,.2-.52c3.42-5.06,6.88-10.11,10.25-15.2a2.28,2.28,0,0,0,0-1.88c-2.57-5.65-5.21-11.26-7.83-16.87C379.85,490.64,379.63,490.32,379.21,489.62ZM149.44,515.23l.25-.28-9.27-19.85-10.93,16.17A43.22,43.22,0,0,1,149.44,515.23Zm13-65.52.34.1,17.69-26.13c-5.55,2.23-10.83,4.68-16.08,7.19a2,2,0,0,0-.8,1.41c-.23,2.18-.34,4.37-.48,6.55C162.87,442.46,162.65,446.08,162.43,449.71Zm129.11-61.14a6.5,6.5,0,0,0-.65-.6c-4.47-3.05-8.93-6.12-13.45-9.1a2.15,2.15,0,0,0-1.75.06c-5,2.26-9.9,4.58-14.84,6.89-.31.14-.6.34-1.28.73Zm120.9,96.07c-2.46.25-4.64.44-6.8.73a1.78,1.78,0,0,0-1,.82q-5.46,8-10.85,16c-.22.32-.46.85-.34,1.13.76,1.82,1.62,3.6,2.55,5.63C401.55,500.72,406.94,492.78,412.44,484.64Zm-275.1,3.87-16,23.69c2.63-.35,4.92-.64,7.2-1,.25,0,.49-.4.67-.66q5.24-7.69,10.43-15.43a1.54,1.54,0,0,0,.21-1.24C139.09,492.17,138.27,490.5,137.34,488.51Zm215.24,85.68.24.24c4.6-2.14,9.18-4.32,13.81-6.4a2.23,2.23,0,0,0,1.52-2.19c.18-3.68.43-7.36.65-11,.09-1.47.19-2.94.28-4.41l-.31-.11Zm-107.5,34.68-.07.29c.21.17.41.35.64.51,3.94,2.67,7.91,5.31,11.82,8a2,2,0,0,0,2.3.18c4.38-2.09,8.79-4.12,13.19-6.18.44-.2.86-.44,1.3-.66l-.07-.33ZM154,475.49c-.33.23-.47.28-.54.38-2.7,4-5.42,7.94-8.06,11.95a2,2,0,0,0,0,1.64c2,4.33,4,8.62,6,12.93.14.3.34.58.51.87l.29-.06C152.83,494.05,153.41,484.9,154,475.49ZM411.3,402.9c-1.3-1.84-2.5-3.44-3.59-5.11-.52-.81-1-.79-1.82-.45a17,17,0,0,1-17.33-2.09l-.81-.59c1.88,2.62,3.92,5,5.81,7.58a2.39,2.39,0,0,0,2.6,1c2.91-.35,5.84-.65,8.77-.75C406.91,402.4,408.91,402.72,411.3,402.9Zm-44.07,62-.34.15a104,104,0,0,1,5.66,28.46c.4-4.53.66-9.05,1-13.56a8.8,8.8,0,0,0-1.06-5.1c-.83-1.51-1.4-3.16-2.21-4.68C369.34,468.41,368.26,466.69,367.23,464.93Zm48.33-61.11c-2.1-3.08-4-5.85-5.95-8.69l-2,1.44a43,43,0,0,1,3.27,4.74C411.85,403.17,413.4,403.55,415.56,403.82Zm-53.94,31.44.41-.09c.43-1.46.88-2.92,1.29-4.39a.66.66,0,0,0-.18-.59c-1.7-1.19-3.42-2.34-5.13-3.51l-.3.26Q359.66,431.11,361.62,435.26ZM142.1,595.56l3.73,4.27.33-.24.36-5.44Zm-17.57,4.37,1.79-1.33c-1-2.17-2.09-2.73-4.49-2.41Zm48.32-35.33c-1.06,2.51-.65,3.33,1.78,3.8ZM371.6,471.45c.64,1.33,1.27,2.67,2,4.19C374.48,473.31,373,472.35,371.6,471.45ZM142.93,597.74c-1.39-2.28-2-2.47-3.77-1.26Zm-13.42-.85-3.3-.16C127,598.4,127.08,598.4,129.51,596.89Zm28.77-78.31c-.49,1.95-.1,2.66,1.43,3.06Z"/><path class="cls-1" d="M326.35,577.3c-4.51-3.17-9-6.35-13.54-9.5q-14.18-9.84-28.36-19.64l-1-.61q-7.94,24.51-15.8,48.75A10.58,10.58,0,0,0,266,596c-18.11-.32-35.14-4.75-50.73-14-24.79-14.74-40.74-36.12-47-64.39a90.07,90.07,0,0,1-1-33.3A95.26,95.26,0,0,1,194,430.69a99,99,0,0,1,52.7-28.44c25.75-5.07,50.16-1,73,12,2.05,1.17,4,2.52,5.88,3.69l-16.53,50.55h54.1c-7-20.73-19.67-37-37.36-49.66l.31-.38c.42.26.85.5,1.25.79A98.41,98.41,0,0,1,357.73,454a90.42,90.42,0,0,1,10.15,33.14c3.21,32.38-7.39,59.62-30.89,81.93-2.81,2.66-6,5-9,7.39a7.32,7.32,0,0,1-1.7.78ZM267.58,404.88h-.34q-.92,2.7-1.82,5.42-9.67,28.86-19.33,57.74c-.35,1.06-.8,1.62-2,1.43a6.41,6.41,0,0,0-1,0H176c-.51,0-1,0-1.52.06l-.06.38,57.68,40.24L210.4,574.32a3.14,3.14,0,0,0,1.46-.61q27.13-18.8,54.27-37.62a1.8,1.8,0,0,1,2.45-.08q24.1,16.77,48.27,33.48l7.65,5.28c-.24-.82-.35-1.26-.49-1.68q-10.41-30.84-20.85-61.66c-.34-1-.22-1.57.68-2a10.59,10.59,0,0,0,1-.71l54.51-38c.38-.27.73-.58,1.1-.87a7.13,7.13,0,0,0-2.5-.32q-33.39,0-66.79,0a2.31,2.31,0,0,1-2.63-1.88q-9.1-27.45-18.31-54.85C269.38,410.15,268.47,407.52,267.58,404.88ZM251.82,448c5.21-15.53,10.32-30.79,15.43-46.05l.33,0c5.13,15.31,10.27,30.62,15.46,46.08l41.74-29.88a103.51,103.51,0,0,0-114.7-.05Zm106.35,78.47.16-.3-37-26.68.33-.57a10.42,10.42,0,0,1,1.37.71q18.72,13.47,37.44,26.94c.76.55,1.61,1,2.58,1.55a95.34,95.34,0,0,0,.35-59.12l-59,41.12Zm-149.54,50.6a102.61,102.61,0,0,0,58.26,18.23c-.18-.67-.28-1.07-.41-1.46l-5.82-18q-4.31-13.26-8.58-26.51a4.94,4.94,0,0,1,0-1.49h.45q7.17,22.05,14.32,44.09l.18-.08V536.64Zm17.25-108.54-16.36-50.06c-18.11,12.7-30.84,29.12-38,50.06ZM208.54,577c5.51-16.32,10.93-32.37,16.38-48.53-.51-.05-.82-.12-1.14-.12q-25,0-50.05,0a10.54,10.54,0,0,0-1.84.34C179,548.76,191.26,564.59,208.54,577Zm101.39-48.5L326.28,577c17.3-12.43,29.55-28.31,36.65-48.45Zm-138.14-.08c14.16-9.95,27.84-20,41.83-30L171.39,469A95.8,95.8,0,0,0,171.79,528.42Zm40.12-106.57-.24.13a4.94,4.94,0,0,0,.13.52q7.35,22.56,14.7,45.11a1.34,1.34,0,0,0,1.54,1c5.23,0,10.47,0,15.71,0a1.39,1.39,0,0,0,1.56-1.18q2.9-8.78,5.9-17.51c.32-.93,0-1.32-.68-1.81Q232.1,435,213.68,421.84c-.35-.25-.73-.47-1.09-.7l-.23.23,32.54,46.15-.51.36Q228.15,444.87,211.91,421.85Zm77.6,46.66c.83.06,1.31.12,1.79.12,5,0,9.92-.06,14.87.05a2.19,2.19,0,0,0,2.54-1.82c3.53-11,7.13-21.91,10.71-32.87q2.07-6.36,4.15-12.73l-.28-.15Zm0-1.12L322,421.73a3,3,0,0,0-1.57.67q-17,12.15-34,24.31c-1,.73-2.53,1.33-2.86,2.32s.52,2.36.91,3.54C286.14,457.39,287.77,462.21,289.51,467.39ZM176.45,526.3l.15.3,53.52-16.31c-.12-.28-.13-.4-.19-.44-5-3.52-10-7-15.05-10.5a1.27,1.27,0,0,0-1.17.13q-15.21,10.89-30.37,21.85Zm91.41,10.37V591.9a3.37,3.37,0,0,0,.73-1.38q6.93-21.36,13.89-42.69c.27-.84-.06-1.08-.56-1.43L272,539.54Zm36.13-26c.22.76.33,1.2.47,1.63,1.55,4.59,3.14,9.18,4.62,13.79A1.61,1.61,0,0,0,311,527.4q22.64,0,45.28,0h1.46l0-.37Zm-73.18.09L177.44,527a2.14,2.14,0,0,0,1.34.37q22.5,0,45,0a1.72,1.72,0,0,0,2-1.38c1.47-4.58,3.05-9.11,4.59-13.66C230.51,512,230.6,511.51,230.81,510.75Z"/><path class="cls-1" d="M326.35,577.3l-.05,0a6.05,6.05,0,0,1-1,1.08,100.05,100.05,0,0,1-41.05,16.24c-4.51.7-9.09,1-13.64,1.39a19.62,19.62,0,0,1-2,0l-.07-.4a7.67,7.67,0,0,1,1.3-.26A102.69,102.69,0,0,0,324.73,578,9.74,9.74,0,0,1,326.35,577.3Z"/><path class="cls-1" d="M327.51,336.68a2.86,2.86,0,0,1,0,1q-2.54,5.34-5.13,10.63c-.15.3-.5.5-.75.74.36-.94.66-1.91,1.09-2.83,1.3-2.78,2.65-5.54,4-8.29A11.53,11.53,0,0,1,327.51,336.68Z"/><path class="cls-1" d="M194.35,356.51c-.35-.12-.88-.14-1-.38-2.07-3.42-4.1-6.88-6.13-10.33-.07-.12,0-.31.31-.61q3.41,5.67,6.82,11.34Z"/><path class="cls-1" d="M278.37,339.05V326.76h.32v12.29Z"/><path class="cls-1" d="M332.32,642.24q2.74,5.21,5.51,10.4l-.53.29-5.51-10.38Z"/><path class="cls-1" d="M372.77,630.53c1.38-1.4,2.76-2.81,4.15-4.21s1.43-1.43,0-2.8-2.95-2.83-4.58-4.39l1.35-1.07c1.2,1.27,2.28,2.47,3.42,3.62,2.19,2.19,2.23,2.21,4.36,0,1.1-1.12,2.62-2,2.56-4,0-.29,1.39-.61,2.14-.92l.3.45c-.27.32-.51.67-.8,1-1.71,1.73-3.41,3.47-5.16,5.15-.66.64-.66,1.09,0,1.73q3.17,3.07,6.24,6.25c.62.63,1,.55,1.62,0,1.09-1.15,2.32-2.19,3.34-3.4a6.61,6.61,0,0,0,1.14-2.39c.45-1.52,1.55-.81,2.34-1L380.1,639.68h0c1.46-1.48,2.9-3,4.37-4.42,2.15-2.12,2.15-2.11.08-4.18-1.59-1.59-3.21-3.15-4.75-4.78-.77-.83-1.32-.95-2.13,0-1.1,1.26-2.35,2.41-3.54,3.59-.34.34-.7.65-1.06,1Z"/><path class="cls-1" d="M388.33,381.11c2.19,2,5,1.57,7.44,2.34.17.05.73-.62.86-1a15,15,0,0,0,0-8.7c-.17-.62-.37-1.24-.58-2,1.27-.15,2,.06,2.22,1.52a19.9,19.9,0,0,1-2.59,12.94c-.23.41-.47.81-.69,1.22a4.54,4.54,0,0,0-.11.68c2.74-2.11,5.39-3.9,8.68-4.17a15.84,15.84,0,0,1,9,2.31l-3.35-.86A13.58,13.58,0,0,0,397,388.05c-1.71,1.35-3.26,2.92-4.85,4.44a14.91,14.91,0,0,0-1.33,1.74l-1.23-1.76c2.39-.42,5.32-4.81,6.42-8.73-2.05-.08-4-.19-6-.22S387.79,383.33,388.33,381.11Z"/><path class="cls-1" d="M398.61,392.84c1.31-1,2.43-1.86,3.61-2.65a1.87,1.87,0,0,1,1.32-.25c.39.09.68.54,1,.83-.32.27-.61.68-1,.79C402,392,400.49,392.36,398.61,392.84Z"/><path class="cls-1" d="M127.43,614.69c2.3,1.82,2.3,1.82,4.38-.27l10.61-10.6c.35-.36.72-.7,1.18-1.13l.84,1.12c-3,2-3.94,5-5.2,8.41h2.39l3.09,0c1.82,0,2,.21,1.44,2.15-1.78-1.61-4.1-1.25-6.18-1.77-.27-.07-1,.59-1.09,1a19.43,19.43,0,0,0-.19,8.35c.09.54.18,1.08.27,1.64-1.42.36-1.93-.08-2-1.46a23.32,23.32,0,0,1,2.64-12.46c.26-.5.51-1,.76-1.5a4.18,4.18,0,0,0,.16-.69c-.63.56-1,.88-1.39,1.23-2.64,2.65-5.27,5.3-7.93,7.93a4.35,4.35,0,0,1-1.46,1c-1.15.42-1.89-.22-1.91-1.42A7.67,7.67,0,0,0,127.43,614.69Z"/><path class="cls-1" d="M122.78,609.54a30.26,30.26,0,0,0,13.5-3.66l-4.57-4.76.12-.17a3.63,3.63,0,0,1,.59.3c1.77,1.29,2.69,3.6,5.08,4.2.25.07.3,1,.43,1.44-1,.33-1.87.56-2.7.9A23.3,23.3,0,0,1,122.78,609.54Z"/><path class="cls-1" d="M146.89,359.7l1.56.5c-1,1.15-1.88,2.17-2.82,3.11s-.82,1.46.09,2.17c.44.34.76.84,1.21,1.16s1.41,1,1.6.83c.65-.54,1.9-1,1.18-2.29-.1-.2.11-.57.16-.84l4.8,4.88a11.28,11.28,0,0,0-2.35,2.46c-.17.32,1.08,1.41,1.79,2.28l1.85-2,.19.13c-1.23,1.93-2.42,3.88-3.72,5.76-.22.31-.9.29-1.54.17.62-.73,1.23-1.49,1.87-2.2,1.17-1.29-.23-1.74-.79-2.46s-1.24-.71-1.81,0c-.31.4-.54.86-.88,1.24a2.36,2.36,0,0,1-1,.72c-.18.05-.53-.32-.75-.55-.87-.91-1.71-1.84-2.57-2.76s-.9-1.09.41-1.58A3.47,3.47,0,0,0,147,369c.14-.24-.34-1-.7-1.34-3-2.84-1.88-2.7-4.65.24a6,6,0,0,0-.55,1l2.39.52c-2.47.84-4.7.32-5.17-1.22.13,0,.3-.14.37-.1,1.58,1,2.39.08,3.24-1.14,1.22-1.76,2.61-3.41,3.88-5.15A16.43,16.43,0,0,0,146.89,359.7Zm4,6.63-.67-.19A11,11,0,0,0,149,368c-.11.28.21.82.46,1.14.4.51.93.91,1.36,1.4s1,.65,1.49,0c.36-.49,1-1.29.88-1.51A22.18,22.18,0,0,0,150.85,366.33Zm-3.43,2.42a17,17,0,0,0-1.26,2.08,1.32,1.32,0,0,0,.32,1c.47.57,1.05,1.05,1.55,1.6s1,.54,1.38,0,1.05-1.3.91-1.5A31.66,31.66,0,0,0,147.42,368.75Z"/><path class="cls-1" d="M150.92,383c-4.77-4.2-7.9-9.31-13.87-10.75l-.39.32c.12.37.2.75.35,1.1a6.06,6.06,0,0,1,.46,1.17l-2.75-3.45c.39-.54,1.44-.39,2.42-.22,3.22.54,5.76,2.35,8.06,4.54,1.66,1.58,3.29,3.2,4.87,4.86.69.72,1.18.84,1.94.06q3.92-4,7.93-7.94c.7-.69.67-1.17,0-1.84-1.92-1.85-3.8-3.74-5.66-5.64a16.21,16.21,0,0,1-4.75-9.77c2,7.16,8.23,11,12.55,16-3.32,3.27-6.57,6.51-9.87,9.7C151.57,381.68,151.82,383.26,150.92,383Z"/><path class="cls-1" d="M131.36,513a41.08,41.08,0,1,1-41.11,40.91A41,41,0,0,1,131.36,513Zm31.51,64.53-.68,2.12c.17,0,.28,0,.32-.1a38.57,38.57,0,0,0,6.9-12.52,1.14,1.14,0,0,0-.14-1c-1-.78-2.1-1.47-3.48-2.41a17.82,17.82,0,0,1,0,2c-.1.75-.29,1.49-.45,2.23a11.31,11.31,0,0,0,.27-1.63,31.66,31.66,0,0,0-6.39-19.89,27.12,27.12,0,0,0-20.69-11.56,25.38,25.38,0,0,0-16,3.62c-10.8,6.81-16,16.71-14.8,29.45,1.06,11.34,7.11,19.53,17.33,24.51a50.59,50.59,0,0,0,7,2.28l.11-.34-5.27-2.88c2.13.59,4.12,1.44,6.14,2.19a9.43,9.43,0,0,0,6.69-.15A164.54,164.54,0,0,1,122.8,566a19,19,0,0,1-3,1.65c-2.61.91-3,2.88-2.72,5.23,0,.14,0,.27,0,.41a23.76,23.76,0,0,0,2.47,9.38c-4.47-6.58-4.4-17.77,2.15-25.63a22.4,22.4,0,0,1,27.41-5.72,20.42,20.42,0,0,1,9.67,10c3.56,7.77,3.3,15.42-1.14,22.88a2.1,2.1,0,0,0,.91-.65C160,581.56,161.45,579.53,162.87,577.51ZM149,554.41c.07-2.35,0-2.5-2.17-3.45l-.52-.2A21.38,21.38,0,0,0,121.16,559a2.16,2.16,0,0,0,0,1.73A154.89,154.89,0,0,0,139,591.42c1.86,2.49,1.2,2,3.83,1.35.94-.25,1.84-.66,2.79-.92s1.17-.84,1.21-1.75c.16-3.65.4-7.28.63-10.92Q148.22,566.79,149,554.41Zm1-17.07c.07-.32.13-.49.15-.67.36-5.55.68-11.09,1.1-16.64.07-1-.49-1.41-1.21-1.78a39.56,39.56,0,0,0-21.34-4.5,1.81,1.81,0,0,0-1.2.5c-2.39,3.44-4.73,6.92-7.22,10.6a4.65,4.65,0,0,1,.59.29c4.21,2.85,8.41,5.73,12.65,8.54a3,3,0,0,0,1.71.36,30,30,0,0,1,11.79,2C148,536.45,149,536.9,150,537.34Zm-55.5.37a39.41,39.41,0,0,0-.14,32.83c5.31,12.25,16.59,19.92,23.94,21.55C107,575.38,99.69,557.05,94.5,537.71ZM109.89,527c-3.55.89-7,1.7-10.33,2.61a3.47,3.47,0,0,0-2,3.55A160.21,160.21,0,0,0,104.18,556c.76,2.08,1.64,4.11,2.59,6.49.17-.75.29-1.1.33-1.47a31.17,31.17,0,0,1,6.75-16,1.85,1.85,0,0,0,.16-1.4c-.68-2.66-1.48-5.3-2.15-8S110.57,530,109.89,527Zm39.86,25.72c-.81,13-1.61,25.58-2.42,38.51,1.74-.94,3.15-1.74,4.6-2.48a2.2,2.2,0,0,0,1.27-2.12c.11-2.71.29-5.41.46-8.12.43-6.9.89-13.81,1.25-20.71a2.84,2.84,0,0,0-.88-2A52.63,52.63,0,0,0,149.75,552.72Zm8.06-29.12c-.14,1.65-.2,2.89-.35,4.12a7,7,0,0,0,.68,3.91c4.13,8.73,8.19,17.48,12.27,26.23.17.36.38.69.58,1l.38,0c0-1.81.17-3.61.15-5.42,0-3.74-.35-7.44-2-10.9-1.88-3.85-3.62-7.77-5.48-11.64C162.65,528,160.31,526,157.81,523.6Zm-31.06-9.49-.21-.37c-2.34.55-4.67,1.08-7,1.65a1.26,1.26,0,0,0-.68.45c-2.34,3.42-4.67,6.85-7,10.23.11.2.13.32.19.36q6.76,4.62,13.56,9.21a1.23,1.23,0,0,0,.89.19c2.06-.54,4.1-1.13,6.34-1.75l-13.43-9.14Zm-1.49,22-14.36-9.74,6.87-10.18-.25-.36c-2.11,1-4.2,2.1-6.35,3A2.37,2.37,0,0,0,109.7,522c1.07,5,2,10,3.12,14.91.51,2.25,1.28,4.44,1.94,6.7,1.72-1.46,3.25-2.91,4.94-4.12S123.26,537.35,125.26,536.16Zm28.47,51.21c8-3.74,9.2-22.88,1.88-29.59C155,567.71,154.36,577.46,153.73,587.37ZM156,541.46c.4-6,.8-11.8,1.14-17.62a1.78,1.78,0,0,0-.59-1.3,33.19,33.19,0,0,0-3.27-2.37c-.95-.61-1.42-.31-1.49.84-.35,5.27-.7,10.54-1,15.82a1.59,1.59,0,0,0,.39,1.21C152.65,539.19,154.23,540.25,156,541.46Zm1.65-9.52-.37.07c-.05.53-.1,1.06-.14,1.59-.15,2.38-.24,4.76-.46,7.13a2.84,2.84,0,0,0,.82,2.51,24.2,24.2,0,0,1,5.93,9.23c1.06,3.15,4,3.7,6,5.57l.32-.26Zm-60.8,1.14c-1.1,1.7-1.92,2.92-1.44,4.81a192.21,192.21,0,0,0,9,27c.81,1.94,1.75,3.84,2.64,5.76a29.1,29.1,0,0,0-.21-4.79,13,13,0,0,0-.73-3.24,174.26,174.26,0,0,1-8.64-26.85C97.29,535,97.09,534.2,96.82,533.08Zm3.34-4.29,9.68-2.43-1-5.93A31.91,31.91,0,0,0,100.16,528.79Zm69.75,36.82c.38-1.58.79-2.91,1-4.27a2.25,2.25,0,0,0-.53-1.78c-1.74-1.35-3.6-2.54-5.57-3.89.36,2.45.67,4.61,1,6.76a1.24,1.24,0,0,0,.51.76C167.42,564,168.55,564.71,169.91,565.61Zm-49.69-5.21a20.5,20.5,0,0,0-2.75,7.93l5.06-2.92Zm-3.68,27.07-.3.23a33.27,33.27,0,0,1,2.2,3.52c.87,1.81,2.45,2,4.25,2.26C121.54,590.38,118.25,589.76,116.54,587.47Zm11,6.63-4.69-1.89C123.92,594,123.92,594,127.58,594.1Z"/><path class="cls-1" d="M445.59,443.75c-.65,14.83-7.09,26-19.41,33.84a40.12,40.12,0,0,1-12.39,5,41.55,41.55,0,0,1-25.94-2.1,39.63,39.63,0,0,1-21.31-20.11A36.27,36.27,0,0,1,364,434.77c4.48-16.58,15.57-26.58,32.17-29.91,14.07-2.82,26.72.94,37.23,10.86a37.48,37.48,0,0,1,11.72,22.85C445.31,440.38,445.44,442.19,445.59,443.75Zm-23.77,9.19c2.57.79,5.15,1.54,7.71,2.37,3.18,1,6.33,2.12,9.49,3.18l.16-.27-16-14.17a29.09,29.09,0,0,1,0,4.32,40.23,40.23,0,0,1-1.31,4.58c-1,1.6-1.83,3.27-2.91,4.79a11.15,11.15,0,0,1-2.13,1.83l.33.47,21.49-.65a3.63,3.63,0,0,0-1.53-.87c-4.54-1.53-9.09-3-13.63-4.61A9,9,0,0,1,421.82,452.94ZM441,458.82l-1.5,1.92.33,1.24.36.07c.41-1,.82-2,1.24-2.94a10.88,10.88,0,0,0,.66-1.21,36.06,36.06,0,0,0,2-21.15c-2.94-13.87-11.25-23.36-24.13-29a13.65,13.65,0,0,0-1.37-.42L427.48,424c2.48-1,4.94-2,7.41-3a4.73,4.73,0,0,1,1.26-.12,5.23,5.23,0,0,1-.39,1.07c-1.61,2.52-3.22,5-4.89,7.51a2.29,2.29,0,0,0-.24,2.3c2.48,7.33,5,14.64,7.23,22C438.49,455.91,439.26,457.61,441,458.82ZM423.69,425.5c0-.28,0-.38,0-.45-3.41-6.27-6.81-12.54-10.28-18.78a2,2,0,0,0-1.33-.83,75.28,75.28,0,0,0-7.79-.79c-2.19,0-4.38.29-6.86.48,2.5,4.77,4.8,9.17,7.13,13.6l12-6,.26.54-11.72,6L411,430.54Zm-25.12,37.6-16.93,7.39a2.6,2.6,0,0,0-1.14.72c-1,1.49-.14,4.58,1.36,5.53A42.66,42.66,0,0,0,404,483.16a3.27,3.27,0,0,0,2.91-1.43c1.47-1.82,1.67-3.36.07-5.1a8.22,8.22,0,0,1-.83-1.3Zm-5.08-29.57c.06-.36.18-.86.25-1.37q.69-5.76,1.37-11.53c.48-4,1-8.06,1.43-12.09.23-2-.91-3.14-2.76-2.54-2.79.89-5.5,2-8.26,3a2,2,0,0,0-1.39,2.11c-.29,5.45-.68,10.9-1,16.35-.12,1.94-.21,3.88-.33,6.08Zm11.95-2.67a18.05,18.05,0,0,0-8.26,1.91,15.46,15.46,0,0,0-4.62,24.93c6.08,6.45,17.32,7.08,24.13,1.34,6.22-5.23,7.8-13.28,3.75-19.89C417,433.59,411.84,431.07,405.44,430.86Zm19.34,46.65c3.08-1.22,9.34-6.42,10.69-8.93L425.08,470l-.08-.5c.56-.12,1.12-.25,1.69-.33,2.95-.46,5.9-.93,8.86-1.34,1.23-.17,1.57-.75,1.27-1.93a36.51,36.51,0,0,1-.88-4.38c-.15-1.24-.75-1.47-1.86-1.42-3.88.17-7.76.24-11.64.37a3.6,3.6,0,0,0-.78.18Zm-47.22-7.43.36.27,13.64-12.22.4.45L378.32,470.9l.17.27,19.28-8.63c-2.11-1.69-4.44-3.09-6.15-5.05s-2.81-4.46-4.17-6.73Zm.09-55.79a6,6,0,0,0-.62.38A38.11,38.11,0,0,0,366.48,429c-1,2.3-.93,2.38,1.26,3.5a2.85,2.85,0,0,0,1.2.27c2.09.13,4.2.16,6.29.35,1.1.09,1.35-.36,1.4-1.34.14-2.89.36-5.78.53-8.67S377.48,417.34,377.65,414.29Zm-3.34,48.16.34-.08c.34-5.4.7-10.8,1-16.2a2,2,0,0,0-.86-1.39c-1.93-1.39-3.91-2.7-5.89-4-1.55-1.05-3.12-2.09-4.68-3.13l-.51.26a11.94,11.94,0,0,0,.56,3c2.67,5.9,5.44,11.76,8.18,17.63C373,459.8,373.68,461.12,374.31,462.45Zm9.25-51.95-.26-.41c-1.58,1.11-3.18,2.19-4.71,3.36-.26.19-.28.76-.31,1.17-.31,5-.6,10-.9,15-.23,3.72-.24,3.72,3.57,3.7.09,0,.22.05.27,0,.35-.31.94-.63,1-1C382.69,425.05,383.12,417.77,383.56,410.5Zm-19.87,30.79c-1.78,8,4.72,25.56,10.77,28.83-.17-2.45.16-4.83-.58-6.8-1.6-4.27-3.76-8.33-5.69-12.47C366.75,447.77,365.3,444.7,363.69,441.29Zm11.64,30.53.51,0c1-2,2.1-3.91,3.09-5.89a9.71,9.71,0,0,0,1.31-3.19c.4-4.18.6-8.38.86-12.57,0-.39,0-1-.23-1.16-1.39-1.05-2.86-2-4.54-3.16-.15,2.46-.27,4.59-.41,6.72-.36,5.87-.75,11.73-1.07,17.6A5.46,5.46,0,0,0,375.33,471.82Zm23-63.45-.32.09q1.83,11,3.65,21.94h8Zm-32.58,23.41-.47.17a24.27,24.27,0,0,1-.81,2.8c-.61,1.5-.06,2.31,1.23,3.17,5.05,3.34,10,6.84,15,10.24,1.76,1.19,3.58,2.29,5.49,3.5.38-.76.7-1.41,1-2.08-.4-.33-.71-.61-1-.86q-9.56-7.34-19.1-14.67a4,4,0,0,1-.85-1.14A10.51,10.51,0,0,1,365.79,431.78Zm35.26-1.34c-1.19-7.13-2.39-14.36-3.6-21.59l-.34,0q-1.44,12.28-2.89,24.61Zm17.71,4.92,14.9-12.83-.17-.26L411.72,431Zm-49.28-1.92,0,.37,18.93,6.92,4.45-6.18Zm45.71,32c-.68,5.84-2.19,11.22-3,17.07.94-.39,1.92-.48,2.3-1,2.62-3.68,5.12-7.45,7.72-11.29Zm-45.72-30.9-.19.37,18,13.8c.3-2.56.57-4.88.86-7.34Zm58.52.17-.53.08c-1.44,2.23-2.84,4.49-4.35,6.67a1.26,1.26,0,0,0,.27,2c2.69,2.31,5.34,4.68,8,7l2,1.7.4-.23Q430.86,443.3,428,434.68ZM407.9,463.76c1.16,5.69,2.33,11.44,3.51,17.19l.31,0,3.66-19.81Zm2.42,17,.34-.14c-1.16-5.67-2.31-11.34-3.43-16.82l-8-.84ZM433.67,424l-.3-.29-3.59,3.07c-3.3,2.83-6.61,5.65-9.87,8.52-.31.27-.6,1-.44,1.3.89,1.56,1.92,3,3,4.72Zm3.79,31.36a145,145,0,0,0-7.64-23.81,3.24,3.24,0,0,0-1,4.17c1.89,5.16,3.64,10.38,5.19,15.65A6.63,6.63,0,0,0,437.46,455.32Zm-10.8-31c-.21-.51-.33-.86-.5-1.18-2.69-5.07-5.42-10.11-8.07-15.2-.86-1.66-2.35-1.6-3.83-2l10.42,19.13Zm-4.26,45.2.31-.18c-.49-2.29-1-4.58-1.43-6.89-.24-1.5-.87-1.93-2.39-1.79-2.91.27-3.38.63-3.38,3.59a1.09,1.09,0,0,0,.35.81C418,466.56,420.22,468,422.4,469.51Zm.61,1.36-.4-.08-7.06,10.43.31.43c2.54-1.08,5.1-2.14,7.62-3.26a1,1,0,0,0,.42-.9C423.64,475.28,423.31,473.07,423,470.87ZM381.75,449.5c-.26,4.05-.49,7.8-.73,11.54l.37.09c1.49-2.9,3-5.8,4.54-8.8Zm55.91,16.7c.62-1,1.34-1.65,1.44-2.39a6.88,6.88,0,0,0-.41-3.34c-.16-.38-1.43-.3-2.38-.46l1,5C437.34,465.29,437.46,465.59,437.66,466.2ZM407,482.68l.17.34,3.5-.43-1.72-2.75Zm-30.44-9.91L379.4,475c.14-1.38.24-2.39.37-3.64Z"/><path class="cls-1" d="M405.67,432.61c8,.12,14.39,5.67,15.05,13.44.51,5.85-2.14,10.3-7.1,13.33-6.46,3.93-15.41,2.43-20-3.26-6.91-8.64-2.28-21,8.69-23.11C403.44,432.79,404.56,432.74,405.67,432.61ZM420.47,447a37.54,37.54,0,0,0-1.56-5.45c-2.7-5.91-8.81-9.1-15.76-8.06-8.9,1.32-14.67,10.2-11.11,18.77,2.57,6.2,9.89,9.83,16.67,8.32A14.58,14.58,0,0,0,420.47,447Z"/></svg>